<?xml version="1.0" encoding="UTF-8"?>
<svg xmlns="http://www.w3.org/2000/svg" xmlns:xlink="http://www.w3.org/1999/xlink" width="128px" height="128px" viewBox="0 0 128 128" version="1.1">
<g id="surface1">
<path style=" stroke:none;fill-rule:evenodd;fill:rgb(1.568627%,33.72549%,48.235294%);fill-opacity:1;" d="M 31.785156 14.273438 C 30.683594 15.007812 29.214844 14.675781 28.484375 13.574219 C 27.75 12.476562 28.078125 11.007812 29.179688 10.273438 C 34.355469 6.933594 39.972656 4.328125 45.84375 2.605469 C 51.679688 0.878906 57.808594 0 63.976562 0 C 81.667969 0 97.671875 7.15625 109.234375 18.75 C 120.832031 30.34375 127.988281 46.339844 127.988281 63.988281 C 127.988281 81.636719 120.832031 97.667969 109.234375 109.226562 C 97.632812 120.820312 81.632812 127.976562 63.976562 127.976562 C 57.808594 127.976562 51.714844 127.09375 45.84375 125.332031 C 39.972656 123.609375 34.355469 121.042969 29.179688 117.664062 C 28.078125 116.929688 27.75 115.464844 28.484375 114.363281 C 29.214844 113.261719 30.683594 112.933594 31.785156 113.664062 C 36.558594 116.785156 41.769531 119.132812 47.203125 120.746094 C 52.597656 122.363281 58.285156 123.167969 64.011719 123.167969 C 80.347656 123.167969 95.175781 116.527344 105.894531 105.851562 C 116.609375 95.136719 123.253906 80.351562 123.253906 63.988281 C 123.253906 47.660156 116.609375 32.835938 105.894531 22.125 C 95.175781 11.410156 80.382812 4.804688 64.011719 4.804688 C 58.285156 4.804688 52.632812 5.613281 47.238281 7.226562 C 41.769531 8.804688 36.558594 11.191406 31.785156 14.273438 Z M 31.785156 14.273438 "/>
<path style=" stroke:none;fill-rule:evenodd;fill:rgb(0%,33.333333%,48.235294%);fill-opacity:1;" d="M 113.929688 66.226562 L 48.488281 66.226562 C 47.238281 66.226562 46.25 65.234375 46.25 63.988281 C 46.25 62.742188 47.238281 61.75 48.488281 61.75 L 113.929688 61.75 C 115.179688 61.75 116.171875 62.742188 116.171875 63.988281 C 116.171875 65.234375 115.179688 66.226562 113.929688 66.226562 Z M 113.929688 66.226562 "/>
<path style=" stroke:none;fill-rule:evenodd;fill:rgb(0%,33.333333%,48.235294%);fill-opacity:1;" d="M 112.648438 54.777344 L 67.976562 54.777344 C 66.730469 54.777344 65.738281 53.789062 65.738281 52.539062 C 65.738281 51.292969 66.730469 50.300781 67.976562 50.300781 L 112.648438 50.300781 C 113.894531 50.300781 114.886719 51.292969 114.886719 52.539062 C 114.886719 53.75 113.894531 54.777344 112.648438 54.777344 Z M 112.648438 54.777344 "/>
<path style=" stroke:none;fill-rule:evenodd;fill:rgb(0%,33.333333%,48.235294%);fill-opacity:1;" d="M 112.648438 77.671875 L 67.976562 77.671875 C 66.730469 77.671875 65.738281 76.683594 65.738281 75.433594 C 65.738281 74.1875 66.730469 73.195312 67.976562 73.195312 L 112.648438 73.195312 C 113.894531 73.195312 114.886719 74.1875 114.886719 75.433594 C 114.886719 76.683594 113.894531 77.671875 112.648438 77.671875 Z M 112.648438 77.671875 "/>
<path style=" stroke:none;fill-rule:evenodd;fill:rgb(100%,40.392157%,0%);fill-opacity:1;" d="M 22.023438 105.742188 C 22.941406 106.660156 22.941406 108.199219 22.023438 109.117188 C 21.105469 110.035156 19.5625 110.035156 18.644531 109.117188 C 12.664062 103.136719 8 96.054688 4.84375 88.386719 C 1.6875 80.71875 0 72.425781 0 63.953125 C 0 55.511719 1.6875 47.21875 4.84375 39.515625 C 8 31.847656 12.664062 24.765625 18.644531 18.785156 C 19.5625 17.867188 21.105469 17.832031 22.023438 18.785156 C 22.941406 19.703125 22.976562 21.242188 22.023438 22.160156 C 16.480469 27.699219 12.1875 34.230469 9.25 41.351562 C 6.3125 48.429688 4.773438 56.097656 4.773438 63.953125 C 4.773438 71.800781 6.3125 79.472656 9.25 86.550781 C 12.148438 93.671875 16.480469 100.199219 22.023438 105.742188 Z M 22.023438 105.742188 "/>
<path style=" stroke:none;fill-rule:evenodd;fill:rgb(100%,40.392157%,0%);fill-opacity:1;" d="M 30.316406 97.449219 C 31.234375 98.367188 31.234375 99.90625 30.316406 100.824219 C 29.398438 101.742188 27.859375 101.742188 26.941406 100.824219 C 22.058594 95.945312 18.277344 90.183594 15.671875 83.910156 C 13.066406 77.636719 11.707031 70.886719 11.707031 63.988281 C 11.707031 57.089844 13.066406 50.339844 15.671875 44.066406 C 18.242188 37.789062 22.058594 32.03125 26.941406 27.152344 C 27.859375 26.234375 29.398438 26.195312 30.316406 27.152344 C 31.234375 28.066406 31.273438 29.609375 30.316406 30.527344 C 25.875 34.964844 22.425781 40.210938 20.078125 45.863281 C 17.726562 51.550781 16.480469 57.675781 16.480469 63.953125 C 16.480469 70.226562 17.726562 76.390625 20.078125 82.039062 C 22.460938 87.761719 25.914062 92.972656 30.316406 97.449219 Z M 30.316406 97.449219 "/>
<path style=" stroke:none;fill-rule:evenodd;fill:rgb(100%,40.392157%,0%);fill-opacity:1;" d="M 38.613281 89.082031 C 39.53125 90 39.53125 91.542969 38.613281 92.460938 C 37.695312 93.375 36.152344 93.375 35.234375 92.460938 C 31.492188 88.679688 28.554688 84.203125 26.535156 79.359375 C 24.554688 74.519531 23.492188 69.269531 23.492188 63.953125 C 23.492188 58.628906 24.554688 53.382812 26.535156 48.542969 C 28.519531 43.699219 31.457031 39.222656 35.234375 35.441406 C 36.152344 34.527344 37.695312 34.488281 38.613281 35.441406 C 39.53125 36.359375 39.566406 37.902344 38.613281 38.816406 C 35.308594 42.15625 32.703125 46.082031 30.941406 50.339844 C 29.179688 54.59375 28.261719 59.21875 28.261719 63.914062 C 28.261719 68.648438 29.179688 73.234375 30.941406 77.488281 C 32.738281 81.820312 35.308594 85.746094 38.613281 89.082031 Z M 38.613281 89.082031 "/>
</g>
</svg>
