<svg width="220" height="52" viewBox="0 0 220 52" fill="none" xmlns="http://www.w3.org/2000/svg">
  <path fill-rule="evenodd" clip-rule="evenodd" d="M12.7647 5.72607C12.3135 6.01767 11.7297 5.88513 11.4378 5.43446C11.1458 4.9838 11.2785 4.40059 11.7297 4.10898C13.7996 2.78351 16.0554 1.74963 18.3907 1.06038C20.7526 0.371134 23.1941 0 25.6621 0C32.7478 0 39.17 2.86303 43.8141 7.50221C48.4583 12.1414 51.3244 18.5567 51.3244 25.6348C51.3244 32.7128 48.4583 39.1281 43.8141 43.7673C39.17 48.4065 32.7478 51.2695 25.6621 51.2695C23.1941 51.2695 20.7526 50.8984 18.3907 50.2091C16.0288 49.5199 13.7996 48.486 11.7031 47.134C11.252 46.8424 11.1458 46.2592 11.4112 45.8085C11.7031 45.3579 12.287 45.2518 12.7381 45.5169C14.6489 46.7629 16.7454 47.7172 18.9215 48.3535C21.0976 48.9897 23.3533 49.3343 25.6621 49.3343C32.217 49.3343 38.1615 46.6834 42.4607 42.3888C46.7598 38.0943 49.4136 32.1561 49.4136 25.6082C49.4136 19.0604 46.7598 13.1222 42.4607 8.82769C38.1615 4.58616 32.217 1.90869 25.6621 1.90869C23.3799 1.90869 21.0976 2.2268 18.9215 2.88954C16.7719 3.52577 14.6754 4.48012 12.7647 5.72607Z" fill="#00557B"/>
  <path fill-rule="evenodd" clip-rule="evenodd" d="M45.725 26.536H19.479C18.9747 26.536 18.5767 26.1384 18.5767 25.6347C18.5767 25.131 18.9747 24.7334 19.479 24.7334H45.725C46.2293 24.7334 46.6273 25.131 46.6273 25.6347C46.6008 26.1384 46.2027 26.536 45.725 26.536Z" fill="#00557B"/>
  <path fill-rule="evenodd" clip-rule="evenodd" d="M45.1941 21.9499H27.281C26.7767 21.9499 26.3787 21.5522 26.3787 21.0485C26.3787 20.5449 26.7767 20.1472 27.281 20.1472H45.1941C45.6983 20.1472 46.0964 20.5449 46.0964 21.0485C46.0964 21.5522 45.6983 21.9499 45.1941 21.9499Z" fill="#00557B"/>
  <path fill-rule="evenodd" clip-rule="evenodd" d="M45.1941 31.1222H27.281C26.7767 31.1222 26.3787 30.7246 26.3787 30.2209C26.3787 29.7172 26.7767 29.3196 27.281 29.3196H45.1941C45.6983 29.3196 46.0964 29.7172 46.0964 30.2209C46.0964 30.7246 45.6983 31.1222 45.1941 31.1222Z" fill="#00557B"/>
  <path fill-rule="evenodd" clip-rule="evenodd" d="M8.83715 42.3888C9.20868 42.7599 9.20868 43.3696 8.83715 43.7408C8.46562 44.1119 7.85525 44.1119 7.48371 43.7408C5.09529 41.3284 3.2111 38.5184 1.93727 35.4433C0.66345 32.3417 0 29.028 0 25.6347C0 22.2415 0.66345 18.9278 1.93727 15.8527C3.2111 12.7776 5.06876 9.94107 7.48371 7.55521C7.85525 7.18407 8.46562 7.18407 8.83715 7.55521C9.20868 7.92634 9.20868 8.53606 8.83715 8.90719C6.6345 11.134 4.88299 13.7319 3.71532 16.595C2.54765 19.4315 1.91074 22.5066 1.91074 25.6347C1.91074 28.7894 2.52111 31.8645 3.71532 34.701C4.88299 37.5375 6.6345 40.162 8.83715 42.3888Z" fill="#FF6700"/>
  <path fill-rule="evenodd" clip-rule="evenodd" d="M12.1811 39.0486C12.5526 39.4197 12.5526 40.0295 12.1811 40.4006C11.8095 40.7717 11.1991 40.7717 10.8276 40.4006C8.8638 38.4389 7.35114 36.1326 6.31616 33.6141C5.28117 31.0957 4.72388 28.3918 4.72388 25.6348C4.72388 22.8778 5.28117 20.1738 6.31616 17.6554C7.35114 15.137 8.89034 12.8306 10.8276 10.8689C11.1991 10.4978 11.8095 10.4978 12.1811 10.8689C12.5526 11.2401 12.5526 11.8498 12.1811 12.2209C10.403 14.0236 9.02303 16.1178 8.06767 18.3976C7.13883 20.651 6.63461 23.1163 6.63461 25.6348C6.63461 28.1532 7.13883 30.6186 8.06767 32.8984C9.02303 35.1782 10.403 37.2725 12.1811 39.0486Z" fill="#FF6700"/>
  <path fill-rule="evenodd" clip-rule="evenodd" d="M15.4982 35.7084C15.8697 36.0795 15.8697 36.6893 15.4982 37.0604C15.1266 37.4315 14.5163 37.4315 14.1447 37.0604C12.6321 35.5493 11.4644 33.7467 10.6683 31.8115C9.87212 29.8763 9.44751 27.782 9.44751 25.6348C9.44751 23.514 9.87212 21.3932 10.6683 19.458C11.4644 17.5228 12.6586 15.7202 14.1447 14.2091C14.5163 13.838 15.1266 13.838 15.4982 14.2091C15.8697 14.5803 15.8697 15.19 15.4982 15.5611C14.1713 16.9131 13.1363 18.4772 12.4198 20.1738C11.7032 21.8704 11.3317 23.7261 11.3317 25.6083C11.3317 27.4904 11.7032 29.3461 12.4198 31.0427C13.1363 32.7923 14.1713 34.3564 15.4982 35.7084Z" fill="#FF6700"/>
  <path fill-rule="evenodd" clip-rule="evenodd" d="M66.7431 17.3637V24.9455C66.7431 25.1045 66.7166 25.2106 66.6635 25.2636C66.6104 25.3166 66.5043 25.3431 66.3185 25.3431H64.4078C64.2751 25.3431 64.1424 25.3166 64.0893 25.2636C64.0097 25.2106 63.9832 25.1045 63.9832 24.972V13.7849C63.9832 13.3078 64.0628 12.9896 64.2485 12.7776C64.4078 12.592 64.7262 12.486 65.1774 12.486H65.947C66.1327 12.486 66.292 12.486 66.4246 12.5125C66.5573 12.539 66.6635 12.5655 66.7696 12.645C66.8758 12.698 66.9554 12.7776 67.035 12.9101C67.1146 13.0162 67.2208 13.1487 67.3269 13.3343L70.4319 18.0795L71.9976 20.5449H72.0772V12.8836C72.0772 12.7245 72.1038 12.645 72.1569 12.592C72.2099 12.539 72.3161 12.5125 72.5019 12.5125H74.4126C74.7045 12.5125 74.8372 12.645 74.8372 12.8836V24.0706C74.8372 24.4683 74.7576 24.7599 74.5984 24.9985C74.4391 25.2371 74.1207 25.3431 73.643 25.3431H72.8734C72.6876 25.3431 72.5284 25.3431 72.3957 25.3166C72.263 25.2901 72.1569 25.2636 72.0507 25.184C71.9446 25.131 71.8649 25.0515 71.7853 24.9455C71.7057 24.8394 71.5996 24.7069 71.4934 24.5213L68.5742 20.0942L66.8227 17.3637H66.7431Z" fill="#FF6700"/>
  <path fill-rule="evenodd" clip-rule="evenodd" d="M80.994 25.3167C80.304 25.3167 79.7467 25.2107 79.3221 25.0251C78.8975 24.8395 78.5525 24.5744 78.2872 24.2563C78.0218 23.9382 77.8625 23.5671 77.7564 23.1694C77.6502 22.7718 77.5972 22.3476 77.5972 21.95V12.8837C77.5972 12.7246 77.6237 12.6451 77.7033 12.5921C77.7829 12.5391 77.8891 12.5126 78.0218 12.5126H79.959C80.1448 12.5126 80.251 12.5391 80.304 12.5921C80.3571 12.6451 80.3837 12.7512 80.3837 12.9102V21.7909C80.3837 22.2416 80.4898 22.5597 80.7287 22.7188C80.9675 22.8778 81.2594 22.9573 81.6044 22.9573H86.2486C86.3812 22.9573 86.4874 22.9839 86.5139 23.0104C86.567 23.0634 86.5935 23.1694 86.5935 23.3285V24.9456C86.5935 25.2107 86.4874 25.3167 86.2486 25.3167H80.994Z" fill="#FF6700"/>
  <path fill-rule="evenodd" clip-rule="evenodd" d="M87.9469 16.0118C87.9469 15.5081 88.0265 15.0309 88.2122 14.5537C88.398 14.1031 88.6634 13.7054 89.0084 13.3608C89.3534 13.0162 89.8045 12.7511 90.3618 12.5655C90.9191 12.38 91.556 12.2739 92.2991 12.2739C92.6441 12.2739 92.9891 12.3004 93.3606 12.3269C93.7321 12.3535 94.1037 12.4065 94.4487 12.486C94.8202 12.5655 95.1652 12.6451 95.4837 12.7511C95.8021 12.8571 96.1206 12.9632 96.3859 13.0957C96.5452 13.1753 96.6248 13.2283 96.6248 13.3078C96.6513 13.3873 96.6248 13.4934 96.5717 13.6789L96.094 15.0574C96.041 15.2165 95.9613 15.3225 95.9083 15.349C95.8552 15.3755 95.749 15.3755 95.5898 15.3225C95.006 15.1635 94.4487 15.0044 93.8648 14.8984C93.3075 14.7923 92.7768 14.7393 92.2726 14.7393C91.7418 14.7393 91.3703 14.8454 91.1314 15.0309C90.9191 15.2165 90.813 15.4551 90.813 15.7467C90.813 15.9057 90.8395 16.0383 90.9191 16.1973C90.9987 16.3299 91.1049 16.4624 91.2641 16.595C91.4233 16.7275 91.6622 16.8601 91.9276 16.9926C92.1929 17.1252 92.5379 17.2842 92.936 17.4433C93.5464 17.6819 94.1302 17.947 94.661 18.1856C95.1917 18.4241 95.6429 18.7158 96.0144 19.0339C96.3859 19.352 96.6779 19.7231 96.8902 20.1473C97.1025 20.5714 97.2086 21.0751 97.2086 21.6848C97.2086 22.3211 97.1025 22.9043 96.8636 23.3549C96.6248 23.8321 96.3063 24.2297 95.8817 24.5479C95.4571 24.866 94.9529 25.1046 94.3691 25.2636C93.7852 25.4227 93.1218 25.5022 92.4318 25.5022C92.0337 25.5022 91.6356 25.4757 91.211 25.4492C90.7864 25.3962 90.3618 25.3431 89.9372 25.2371C89.5126 25.1576 89.1145 25.025 88.6899 24.8925C88.2919 24.7599 87.9203 24.5744 87.5753 24.3623C87.4692 24.3093 87.4161 24.2297 87.3896 24.1502C87.363 24.0707 87.3896 23.9646 87.4426 23.8056L88.053 22.3476C88.1061 22.215 88.1857 22.109 88.2653 22.0825C88.3449 22.056 88.4511 22.0825 88.5838 22.1355C88.8226 22.2415 89.088 22.3211 89.3799 22.4271C89.6718 22.5331 89.9638 22.6127 90.2822 22.6922C90.6007 22.7717 90.9191 22.8512 91.2376 22.9043C91.556 22.9573 91.8745 22.9838 92.1929 22.9838C92.5645 22.9838 92.8829 22.9573 93.1483 22.8778C93.4137 22.7982 93.5995 22.7187 93.7587 22.5861C93.9179 22.4801 94.0241 22.3476 94.0771 22.1885C94.1302 22.0294 94.1568 21.8704 94.1568 21.7113C94.1568 21.5258 94.1302 21.3667 94.0506 21.2077C93.971 21.0486 93.8648 20.916 93.7321 20.7835C93.5729 20.651 93.3606 20.5184 93.1218 20.3859C92.8564 20.2533 92.5379 20.1208 92.1399 19.9617C91.503 19.7231 90.9191 19.458 90.3884 19.2194C89.8576 18.9543 89.4065 18.6892 89.0349 18.3711C88.6634 18.053 88.3715 17.7084 88.1592 17.3373C88.053 16.9661 87.9469 16.5155 87.9469 16.0118Z" fill="#FF6700"/>
  <path fill-rule="evenodd" clip-rule="evenodd" d="M211.641 17.3637V24.9455C211.641 25.1045 211.614 25.2106 211.561 25.2636C211.508 25.3166 211.402 25.3431 211.216 25.3431H209.305C209.146 25.3431 209.04 25.3166 208.987 25.2636C208.934 25.2106 208.881 25.1045 208.881 24.972V13.785C208.881 13.3078 208.96 12.9897 209.146 12.7776C209.305 12.592 209.624 12.486 210.075 12.486H210.844C211.03 12.486 211.189 12.486 211.322 12.5125C211.455 12.539 211.561 12.5655 211.667 12.6185C211.773 12.6715 211.853 12.7776 211.933 12.8836C212.012 12.9897 212.118 13.1222 212.224 13.3078L215.329 18.053L216.895 20.5184H216.975V12.8836C216.975 12.7246 217.001 12.645 217.054 12.592C217.107 12.539 217.214 12.5125 217.399 12.5125H219.31C219.602 12.5125 219.735 12.645 219.735 12.9101V24.0972C219.735 24.4948 219.655 24.7864 219.496 25.025C219.337 25.2371 219.018 25.3696 218.541 25.3696H217.771C217.585 25.3696 217.426 25.3696 217.293 25.3431C217.161 25.3166 217.054 25.2901 216.948 25.2371C216.842 25.1841 216.762 25.1045 216.683 24.9985C216.603 24.8925 216.497 24.7599 216.391 24.5743L213.472 20.1472L211.72 17.4168H211.641V17.3637ZM200.044 20.4123L200.734 18.0795L201.423 15.4551H201.53L202.22 18.0795L202.91 20.4123H200.044ZM203.573 22.6657L204.29 25.0515C204.316 25.1841 204.396 25.2636 204.475 25.2901C204.555 25.3166 204.688 25.3431 204.82 25.3431H206.996C207.129 25.3431 207.209 25.2901 207.235 25.2106C207.262 25.131 207.262 25.0515 207.235 24.972L203.414 13.4933C203.334 13.2813 203.255 13.0957 203.175 12.9632C203.095 12.8306 202.989 12.7246 202.883 12.645C202.777 12.5655 202.644 12.539 202.512 12.5125C202.352 12.486 202.193 12.486 201.981 12.486H200.893C200.707 12.486 200.548 12.5125 200.415 12.539C200.282 12.5655 200.15 12.6185 200.044 12.6981C199.937 12.7776 199.858 12.8836 199.778 12.9897C199.699 13.1222 199.619 13.2813 199.566 13.4933L195.744 24.972C195.718 25.078 195.718 25.1576 195.744 25.2371C195.771 25.3166 195.851 25.3431 195.983 25.3431H198.133C198.292 25.3431 198.425 25.3166 198.478 25.2636C198.557 25.2106 198.584 25.131 198.637 24.9985L199.354 22.6657H203.573ZM196.408 14.5272C196.408 14.7658 196.275 14.8984 196.036 14.8984H192.719V24.9455C192.719 25.1045 192.693 25.2106 192.639 25.2636C192.586 25.3166 192.454 25.3431 192.294 25.3431H190.331C190.198 25.3431 190.065 25.3166 190.012 25.2636C189.933 25.2106 189.906 25.1045 189.906 24.972V14.8984H186.668C186.43 14.8984 186.323 14.7658 186.323 14.5272V12.9101C186.323 12.7511 186.35 12.645 186.403 12.592C186.456 12.539 186.536 12.5125 186.668 12.5125H196.036C196.196 12.5125 196.275 12.539 196.328 12.592C196.381 12.645 196.408 12.7511 196.408 12.9101V14.5272ZM176.239 16.0118C176.239 15.5081 176.319 15.0309 176.504 14.5537C176.69 14.1031 176.955 13.7054 177.3 13.3873C177.645 13.0427 178.097 12.7776 178.654 12.592C179.211 12.4065 179.848 12.3004 180.591 12.3004C180.936 12.3004 181.281 12.3269 181.653 12.3534C182.024 12.3799 182.396 12.433 182.741 12.5125C183.112 12.592 183.457 12.6715 183.776 12.7776C184.094 12.8836 184.413 12.9897 184.678 13.1222C184.837 13.2017 184.917 13.2548 184.917 13.3343C184.943 13.4138 184.917 13.5199 184.864 13.7054L184.386 15.0839C184.333 15.243 184.253 15.349 184.2 15.3755C184.147 15.402 184.041 15.402 183.882 15.349C183.298 15.19 182.741 15.0309 182.157 14.9249C181.6 14.8188 181.042 14.7658 180.565 14.7658C180.034 14.7658 179.662 14.8718 179.423 15.0574C179.211 15.243 179.105 15.4816 179.105 15.7732C179.105 15.9322 179.132 16.0648 179.211 16.2238C179.291 16.3564 179.397 16.4889 179.556 16.6215C179.715 16.754 179.928 16.8866 180.22 17.0191C180.485 17.1517 180.83 17.3107 181.228 17.4698C181.838 17.7084 182.422 17.9735 182.953 18.212C183.484 18.4506 183.935 18.7422 184.306 19.0604C184.678 19.3785 184.97 19.7496 185.182 20.1738C185.395 20.5979 185.501 21.1016 185.501 21.7113C185.501 22.3475 185.395 22.9308 185.156 23.3814C184.917 23.8586 184.598 24.2562 184.174 24.5743C183.749 24.8925 183.245 25.131 182.661 25.2901C182.077 25.4492 181.414 25.5287 180.724 25.5287C180.326 25.5287 179.928 25.5022 179.503 25.4757C179.079 25.4227 178.654 25.3696 178.229 25.2636C177.805 25.1841 177.407 25.0515 176.982 24.919C176.584 24.7864 176.212 24.6009 175.867 24.3888C175.761 24.3358 175.708 24.2562 175.682 24.1767C175.655 24.0972 175.682 23.9911 175.735 23.8321L176.345 22.3741C176.398 22.2415 176.478 22.1355 176.557 22.109C176.637 22.0824 176.743 22.109 176.876 22.162C177.115 22.268 177.38 22.3741 177.672 22.4536C177.964 22.5596 178.256 22.6391 178.574 22.7187C178.893 22.7982 179.211 22.8777 179.53 22.9308C179.848 22.9838 180.167 23.0103 180.485 23.0103C180.857 23.0103 181.175 22.9838 181.44 22.9042C181.706 22.8247 181.892 22.7452 182.051 22.6126C182.21 22.5066 182.316 22.3741 182.369 22.215C182.422 22.0559 182.449 21.8969 182.449 21.7378C182.449 21.5523 182.422 21.3932 182.343 21.2341C182.263 21.0751 182.157 20.9425 182.024 20.81C181.865 20.6774 181.653 20.5449 181.414 20.4123C181.148 20.2798 180.83 20.1472 180.432 19.9882C179.795 19.7496 179.211 19.4845 178.68 19.2459C178.15 18.9808 177.699 18.7157 177.327 18.3976C176.955 18.0795 176.664 17.7349 176.451 17.3637C176.345 16.9661 176.239 16.5154 176.239 16.0118ZM173.744 24.9455C173.744 25.1045 173.718 25.2106 173.665 25.2636C173.612 25.3166 173.479 25.3431 173.32 25.3431H171.409C171.25 25.3431 171.144 25.3166 171.091 25.2636C171.037 25.2106 171.011 25.1045 171.011 24.972V19.8291H166.048V24.9455C166.048 25.1045 166.022 25.2106 165.969 25.2636C165.916 25.3166 165.783 25.3431 165.624 25.3431H163.686C163.554 25.3431 163.421 25.3166 163.368 25.2636C163.288 25.2106 163.262 25.1045 163.262 24.972V12.9101C163.262 12.7776 163.288 12.6715 163.368 12.6185C163.448 12.5655 163.554 12.539 163.686 12.539H165.624C165.809 12.539 165.916 12.5655 165.969 12.6185C166.022 12.6715 166.048 12.7776 166.048 12.9366V17.4963H171.011V12.9101C171.011 12.7776 171.037 12.6715 171.091 12.6185C171.144 12.5655 171.25 12.539 171.409 12.539H173.32C173.506 12.539 173.612 12.5655 173.665 12.6185C173.718 12.6715 173.744 12.7776 173.744 12.9366V24.9455ZM157.291 17.1782L161.563 24.866C161.643 24.9985 161.67 25.1045 161.643 25.1841C161.616 25.2636 161.51 25.3166 161.378 25.3166H159.255C158.989 25.3166 158.803 25.2901 158.697 25.2636C158.591 25.2371 158.458 25.1045 158.352 24.8925L155.407 19.4315L153.469 21.7643V24.9455C153.469 25.1045 153.443 25.2106 153.39 25.2636C153.337 25.3166 153.23 25.3166 153.045 25.3166H151.134C151.001 25.3166 150.869 25.2901 150.816 25.2371C150.736 25.1841 150.709 25.078 150.709 24.9455V12.9101C150.709 12.7776 150.736 12.6715 150.816 12.6185C150.895 12.5655 151.001 12.539 151.134 12.539H153.045C153.23 12.539 153.337 12.5655 153.39 12.592C153.443 12.645 153.469 12.7511 153.469 12.9101V17.8144L153.549 17.8409L155.274 15.6671L157.556 12.8041C157.662 12.6715 157.768 12.592 157.875 12.5655C157.981 12.539 158.167 12.5125 158.405 12.5125H160.767C160.873 12.5125 160.953 12.539 161.006 12.6185C161.059 12.6981 161.033 12.7776 160.953 12.8571L157.291 17.1782ZM141.872 20.4123H144.738L144.048 18.0795L143.358 15.4551H143.252L142.562 18.0795L141.872 20.4123ZM145.402 22.6657H141.209L140.492 24.9985C140.466 25.131 140.413 25.2106 140.333 25.2636C140.253 25.3166 140.147 25.3431 139.988 25.3431H137.838C137.706 25.3431 137.626 25.3166 137.6 25.2371C137.573 25.1576 137.573 25.078 137.6 24.972L141.395 13.4933C141.448 13.2813 141.527 13.1222 141.607 12.9897C141.686 12.8571 141.766 12.7511 141.872 12.6981C141.978 12.6185 142.085 12.5655 142.244 12.539C142.376 12.5125 142.536 12.486 142.721 12.486H143.81C144.022 12.486 144.181 12.486 144.34 12.5125C144.5 12.539 144.606 12.5655 144.738 12.645C144.844 12.7246 144.951 12.8306 145.03 12.9632C145.11 13.0957 145.189 13.2813 145.269 13.4933L149.091 24.972C149.117 25.0515 149.117 25.131 149.091 25.2106C149.064 25.2901 148.984 25.3431 148.852 25.3431H146.676C146.543 25.3431 146.437 25.3166 146.331 25.2901C146.251 25.2636 146.171 25.1841 146.145 25.0515L145.402 22.6657ZM136.644 14.1561C136.644 14.4477 136.565 14.6863 136.432 14.9249C136.299 15.1634 136.14 15.3755 135.981 15.5876L130.036 22.8247L130.063 22.9573H136.352C136.485 22.9573 136.565 22.9838 136.618 23.0368C136.671 23.0898 136.671 23.1958 136.671 23.3549V24.9455C136.671 25.1045 136.644 25.1841 136.618 25.2371C136.565 25.2901 136.485 25.3166 136.352 25.3166H127.409C127.064 25.3166 126.799 25.2371 126.613 25.078C126.427 24.919 126.348 24.6804 126.348 24.3093V23.8586C126.348 23.567 126.401 23.3019 126.507 23.0898C126.613 22.8777 126.746 22.6657 126.931 22.4271L133.115 14.9249L133.088 14.8188H127.515C127.276 14.8188 127.17 14.6863 127.17 14.4212V12.8306C127.17 12.6715 127.197 12.539 127.223 12.5125C127.276 12.4595 127.356 12.433 127.515 12.433H135.503C135.901 12.433 136.167 12.5125 136.352 12.645C136.512 12.8041 136.618 13.0692 136.618 13.4668V14.1561H136.644ZM118.36 20.4123H121.226L120.536 18.0795L119.846 15.4551H119.74L119.05 18.0795L118.36 20.4123ZM121.889 22.6657H117.696L116.98 24.9985C116.953 25.131 116.9 25.2106 116.82 25.2636C116.741 25.3166 116.635 25.3431 116.475 25.3431H114.326C114.193 25.3431 114.113 25.3166 114.087 25.2371C114.06 25.1576 114.06 25.078 114.087 24.972L117.908 13.4933C117.961 13.2813 118.041 13.1222 118.121 12.9897C118.2 12.8571 118.28 12.7511 118.386 12.6981C118.492 12.6185 118.625 12.5655 118.758 12.539C118.89 12.5125 119.05 12.486 119.235 12.486H120.323C120.536 12.486 120.695 12.486 120.854 12.5125C121.013 12.539 121.12 12.5655 121.226 12.645C121.332 12.7246 121.438 12.8306 121.518 12.9632C121.597 13.0957 121.677 13.2813 121.756 13.4933L125.551 24.972C125.578 25.0515 125.578 25.131 125.551 25.2106C125.525 25.2901 125.445 25.3431 125.313 25.3431H123.136C123.004 25.3431 122.898 25.3166 122.791 25.2901C122.712 25.2636 122.632 25.1841 122.606 25.0515L121.889 22.6657ZM109.284 17.1782L113.556 24.866C113.636 24.9985 113.662 25.1045 113.636 25.1841C113.609 25.2636 113.503 25.3166 113.37 25.3166H111.247C110.982 25.3166 110.796 25.2901 110.69 25.2636C110.584 25.2371 110.451 25.1045 110.345 24.8925L107.399 19.4315L105.462 21.7643V24.9455C105.462 25.1045 105.436 25.2106 105.382 25.2636C105.329 25.3166 105.223 25.3166 105.037 25.3166H103.127C102.994 25.3166 102.861 25.2901 102.808 25.2371C102.729 25.1841 102.702 25.078 102.702 24.9455V12.9101C102.702 12.7776 102.729 12.6715 102.808 12.6185C102.888 12.5655 102.994 12.539 103.127 12.539H105.037C105.223 12.539 105.329 12.5655 105.382 12.592C105.436 12.645 105.462 12.7511 105.462 12.9101V17.8144L105.542 17.8409L107.267 15.6671L109.549 12.8041C109.655 12.6715 109.761 12.592 109.867 12.5655C109.974 12.539 110.159 12.5125 110.398 12.5125H112.76C112.866 12.5125 112.946 12.539 112.999 12.6185C113.052 12.6981 113.025 12.7776 112.946 12.8571L109.284 17.1782Z" fill="#00557B"/>
  <path fill-rule="evenodd" clip-rule="evenodd" d="M110.292 30.9367C110.053 30.9367 109.841 30.9102 109.655 30.8306C109.443 30.7511 109.257 30.6716 109.098 30.539C108.912 30.4065 108.753 30.2739 108.62 30.1149C108.461 29.9558 108.328 29.7968 108.222 29.6112C108.196 29.5847 108.196 29.5582 108.169 29.5052C108.142 29.4521 108.169 29.3991 108.249 29.3461L108.7 28.9219C108.779 28.8689 108.832 28.8424 108.859 28.8689C108.886 28.8954 108.939 28.9219 108.992 28.975C109.231 29.2135 109.469 29.3991 109.708 29.5317C109.947 29.6642 110.186 29.7437 110.398 29.7437C110.478 29.7437 110.584 29.7437 110.664 29.7172C110.77 29.6907 110.876 29.6642 110.982 29.6112C111.088 29.5582 111.221 29.4786 111.354 29.3726C111.486 29.2666 111.645 29.134 111.831 28.9484C111.911 28.8954 111.964 28.8689 111.99 28.8689C112.017 28.8689 112.044 28.8954 112.097 28.9219L112.521 29.2931C112.601 29.3726 112.627 29.4256 112.627 29.4521C112.627 29.4786 112.601 29.5317 112.574 29.5582C111.858 30.486 111.115 30.9367 110.292 30.9367ZM111.964 33.8527L110.955 35.5493L109.045 38.651C108.965 38.757 108.912 38.8365 108.859 38.916C108.806 38.9691 108.753 39.0221 108.7 39.0751C108.647 39.1016 108.567 39.1281 108.487 39.1546C108.408 39.1546 108.302 39.1811 108.196 39.1811H107.744C107.452 39.1811 107.24 39.1016 107.161 38.9691C107.054 38.8365 107.001 38.6244 107.001 38.3859V31.4138C107.001 31.2813 107.081 31.2018 107.24 31.2018H108.461C108.567 31.2018 108.62 31.2283 108.647 31.2548C108.673 31.2813 108.7 31.3343 108.7 31.4138V36.5302H108.779L109.735 34.9396L111.699 31.7054C111.778 31.5994 111.831 31.5199 111.884 31.4403C111.937 31.3608 111.99 31.3078 112.044 31.2813C112.097 31.2548 112.176 31.2283 112.256 31.2018C112.335 31.2018 112.415 31.1753 112.548 31.1753H113.025C113.317 31.1753 113.503 31.2283 113.609 31.3608C113.715 31.4669 113.769 31.6789 113.769 31.9705V38.9691C113.769 39.1016 113.689 39.1811 113.53 39.1811H112.309C112.203 39.1811 112.123 39.1546 112.097 39.1281C112.07 39.1016 112.044 39.0486 112.044 38.9691V33.8792H111.964V33.8527ZM101.03 36.5832C101.03 36.2916 100.951 36.0265 100.765 35.8409C100.579 35.6554 100.314 35.5493 99.9422 35.5493H98.2703V37.6701H99.9157C100.128 37.6701 100.314 37.6436 100.446 37.5641C100.579 37.4845 100.712 37.405 100.791 37.299C100.871 37.1929 100.951 37.0869 100.977 36.9543C101.004 36.8218 101.03 36.6892 101.03 36.5832ZM105.276 38.9691C105.276 39.0486 105.25 39.1016 105.223 39.1281C105.197 39.1546 105.144 39.1811 105.038 39.1811H103.764C103.604 39.1811 103.525 39.1016 103.525 38.9691V31.4403C103.525 31.3078 103.604 31.2283 103.764 31.2283H105.038C105.144 31.2283 105.197 31.2548 105.223 31.2813C105.25 31.3078 105.276 31.3608 105.276 31.4403V38.9691ZM97.2088 39.1811C96.9434 39.1811 96.7577 39.1281 96.6515 39.0221C96.5719 38.916 96.5188 38.7305 96.5188 38.4919V31.4403C96.5188 31.3078 96.5984 31.2283 96.7577 31.2283H98.0315C98.1376 31.2283 98.1907 31.2548 98.2172 31.2813C98.2438 31.3078 98.2703 31.3608 98.2703 31.4403V34.1178H99.9422C100.606 34.1178 101.136 34.2239 101.534 34.4094C101.933 34.595 102.198 34.8336 102.41 35.0987C102.596 35.3638 102.729 35.6554 102.755 35.947C102.808 36.2386 102.835 36.4772 102.835 36.6627C102.835 37.0339 102.755 37.352 102.623 37.6701C102.49 37.9882 102.278 38.2533 102.039 38.4654C101.8 38.6775 101.508 38.863 101.163 38.9956C100.845 39.1281 100.473 39.1811 100.101 39.1811H97.2088ZM94.8204 38.9426C94.8204 39.0486 94.7938 39.1016 94.7673 39.1281C94.7408 39.1546 94.6611 39.1811 94.555 39.1811H93.3608C93.2546 39.1811 93.2016 39.1546 93.1485 39.1281C93.1219 39.1016 93.0954 39.0221 93.0954 38.9426V35.7614H90.017V38.9426C90.017 39.0486 89.9905 39.1016 89.9639 39.1281C89.9374 39.1546 89.8578 39.1811 89.7516 39.1811H88.5574C88.4778 39.1811 88.3982 39.1546 88.3451 39.1281C88.292 39.1016 88.292 39.0221 88.292 38.9426V31.4669C88.292 31.3873 88.3186 31.3078 88.3451 31.2813C88.3982 31.2548 88.4513 31.2283 88.5574 31.2283H89.7516C89.8578 31.2283 89.9374 31.2548 89.9639 31.2813C89.9905 31.3078 90.017 31.3873 90.017 31.4669V34.3034H93.0954V31.4669C93.0954 31.3873 93.1219 31.3078 93.1485 31.2813C93.175 31.2548 93.2546 31.2283 93.3608 31.2283H94.555C94.6611 31.2283 94.7408 31.2548 94.7673 31.2813C94.7938 31.3078 94.8204 31.3873 94.8204 31.4669V38.9426ZM84.8156 33.8527L83.8071 35.5493L81.8964 38.651C81.8168 38.757 81.7637 38.8365 81.7106 38.916C81.6575 38.9691 81.6045 39.0221 81.5514 39.0751C81.4983 39.1016 81.4187 39.1281 81.3391 39.1546C81.2595 39.1546 81.1533 39.1811 81.0472 39.1811H80.596C80.3041 39.1811 80.0918 39.1016 80.0122 38.9691C79.906 38.8365 79.8529 38.6244 79.8529 38.3859V31.4138C79.8529 31.2813 79.9326 31.2018 80.0918 31.2018H81.3125C81.4187 31.2018 81.4718 31.2283 81.4983 31.2548C81.5248 31.2813 81.5248 31.3343 81.5248 31.4138V36.5302H81.6045L82.5598 34.9396L84.5236 31.7054C84.6033 31.5994 84.6563 31.5199 84.7094 31.4403C84.7625 31.3608 84.8156 31.3078 84.8686 31.2813C84.9217 31.2548 85.0013 31.2283 85.0809 31.2018C85.1606 31.2018 85.2402 31.1753 85.3729 31.1753H85.8505C86.1425 31.1753 86.3282 31.2283 86.4344 31.3608C86.5405 31.4669 86.5936 31.6789 86.5936 31.9705V38.9691C86.5936 39.1016 86.514 39.1811 86.3548 39.1811H85.134C85.0279 39.1811 84.9482 39.1546 84.9217 39.1281C84.8952 39.1016 84.8686 39.0486 84.8686 38.9691V33.8792H84.8156V33.8527ZM75.9784 32.7393H73.8819C73.8023 33.5611 73.7227 34.2239 73.6431 34.8071C73.5634 35.3638 73.5104 35.8409 73.4308 36.2121C73.3777 36.5832 73.2981 36.9013 73.245 37.1399C73.1654 37.3785 73.1123 37.5641 73.0061 37.7231H75.9784V32.7393ZM71.865 39.1811C71.8385 39.4462 71.8385 39.7378 71.8119 40.0029C71.7854 40.268 71.7589 40.5596 71.7323 40.8247C71.7323 40.9838 71.6527 41.0633 71.4935 41.0633H70.5912C70.4585 41.0633 70.3789 40.9838 70.3789 40.8247L70.2462 38.2798C70.2462 38.1208 70.2727 38.0147 70.3258 37.9087C70.3789 37.8026 70.485 37.7496 70.6708 37.6966L71.0689 37.6701C71.2281 37.511 71.3343 37.352 71.4404 37.1929C71.5466 37.0074 71.6262 36.8218 71.6792 36.6362C71.7323 36.4507 71.7854 36.2386 71.8119 36.053C71.8385 35.8674 71.865 35.6554 71.8915 35.4698L72.2896 32.3152C72.3162 32.1561 72.3427 31.997 72.3692 31.8645C72.3958 31.732 72.4489 31.5994 72.5019 31.5199C72.555 31.4138 72.6612 31.3608 72.7673 31.3078C72.8735 31.2548 73.0327 31.2283 73.2184 31.2283H76.9603C77.2522 31.2283 77.4645 31.2813 77.5707 31.4138C77.6768 31.5464 77.7299 31.732 77.7299 31.997V37.6966L78.2076 37.7231C78.3934 37.7496 78.4995 37.7761 78.5526 37.8557C78.6057 37.9352 78.6322 38.0412 78.6322 38.1473L78.473 40.7982C78.473 40.8778 78.4464 40.9308 78.4199 40.9573C78.3934 40.9838 78.3403 41.0103 78.2607 41.0103H77.2788C77.1461 41.0103 77.0665 40.9308 77.0665 40.7717L77.0134 39.1281H71.865V39.1811ZM69.6624 38.916C69.6624 38.9956 69.6358 39.0751 69.6093 39.1016C69.5827 39.1546 69.5297 39.1546 69.4235 39.1546H66.0797C65.6551 39.1546 65.3101 39.1016 65.0447 38.9691C64.7794 38.8365 64.5671 38.6775 64.4078 38.4919C64.2486 38.3063 64.1425 38.0677 64.0894 37.8292C64.0363 37.5906 64.0098 37.3255 64.0098 37.0604V33.296C64.0098 33.0309 64.0363 32.7658 64.1159 32.5007C64.1955 32.2621 64.3017 32.0236 64.4609 31.838C64.6201 31.6524 64.8324 31.4934 65.0978 31.3608C65.3632 31.2548 65.6817 31.1753 66.0797 31.1753H69.3439C69.4235 31.1753 69.5031 31.2018 69.5297 31.2283C69.5562 31.2548 69.5827 31.3343 69.5827 31.4403V32.3947C69.5827 32.5007 69.5562 32.5538 69.5297 32.6068C69.5031 32.6333 69.4501 32.6598 69.3704 32.6598H66.4778C66.1859 32.6598 65.9736 32.7393 65.894 32.8719C65.7878 33.0044 65.7347 33.1635 65.7347 33.3755V34.2504H68.9989C69.0785 34.2504 69.1581 34.2769 69.1847 34.3034C69.2112 34.3299 69.2378 34.4094 69.2378 34.5155V35.3903C69.2378 35.4698 69.2378 35.5493 69.1847 35.5758C69.1581 35.6289 69.1051 35.6289 68.9989 35.6289H65.7347V36.9278C65.7347 37.1929 65.7878 37.3785 65.9205 37.458C66.0532 37.5641 66.239 37.5906 66.4778 37.5906H69.4766C69.5827 37.5906 69.6358 37.6171 69.6624 37.6436C69.6889 37.6701 69.6889 37.7496 69.6889 37.8557V38.916H69.6624Z" fill="#00557B"/>
  <path fill-rule="evenodd" clip-rule="evenodd" d="M175.655 33.8262C175.655 33.7201 175.629 33.6141 175.602 33.4815C175.575 33.349 175.522 33.243 175.416 33.1369C175.337 33.0309 175.204 32.9248 175.071 32.8718C174.912 32.7923 174.726 32.7658 174.514 32.7658H173.028V34.9131H174.514C174.912 34.9131 175.177 34.807 175.363 34.5949C175.575 34.3829 175.655 34.1178 175.655 33.8262ZM173.028 38.9425C173.028 39.0486 173.001 39.1281 172.975 39.1281C172.948 39.1546 172.869 39.1811 172.762 39.1811H171.568C171.489 39.1811 171.409 39.1546 171.382 39.1281C171.329 39.1016 171.329 39.022 171.329 38.9425V31.9175C171.329 31.7054 171.382 31.5463 171.462 31.4138C171.542 31.2812 171.727 31.2282 172.019 31.2282H174.806C175.204 31.2282 175.575 31.2812 175.92 31.4138C176.239 31.5463 176.531 31.7054 176.77 31.9175C177.008 32.1296 177.168 32.3947 177.3 32.7128C177.433 33.0044 177.486 33.349 177.486 33.7201C177.486 33.9057 177.46 34.1708 177.407 34.4624C177.353 34.754 177.221 35.0456 177.008 35.3107C176.796 35.5758 176.504 35.8144 176.133 36.0265C175.761 36.212 175.23 36.3181 174.594 36.3181H173.028V38.9425ZM168.012 35.2047C168.012 34.86 167.986 34.5419 167.932 34.2238C167.879 33.9057 167.8 33.6406 167.667 33.402C167.534 33.1634 167.375 32.9779 167.136 32.8453C166.924 32.7128 166.632 32.6332 166.287 32.6332C165.995 32.6332 165.756 32.6863 165.544 32.8188C165.332 32.9514 165.146 33.1369 165.013 33.349C164.881 33.5876 164.774 33.8527 164.695 34.1443C164.615 34.4359 164.589 34.7805 164.589 35.0986C164.589 35.4963 164.615 35.8674 164.668 36.1855C164.721 36.5036 164.828 36.7687 164.96 37.0073C165.093 37.2459 165.279 37.405 165.491 37.5375C165.703 37.6701 165.995 37.7231 166.314 37.7231C166.632 37.7231 166.924 37.6435 167.136 37.511C167.349 37.3785 167.534 37.1929 167.667 36.9543C167.8 36.7157 167.879 36.4506 167.959 36.159C167.986 35.8674 168.012 35.5493 168.012 35.2047ZM169.843 35.1782C169.843 35.8409 169.764 36.3976 169.631 36.9278C169.498 37.4315 169.286 37.8556 168.967 38.2268C168.676 38.5714 168.304 38.863 167.853 39.0486C167.402 39.2341 166.871 39.3402 166.261 39.3402C165.093 39.3402 164.217 38.9955 163.633 38.2798C163.049 37.564 162.784 36.5567 162.784 35.2577C162.784 34.6215 162.864 34.0382 163.023 33.5346C163.182 33.0309 163.421 32.5802 163.713 32.2356C164.005 31.891 164.376 31.6259 164.828 31.4138C165.252 31.2282 165.756 31.1222 166.287 31.1222C166.871 31.1222 167.402 31.2282 167.826 31.4138C168.278 31.5994 168.649 31.8645 168.941 32.2356C169.233 32.5802 169.445 33.0044 169.604 33.5081C169.764 33.9852 169.843 34.5419 169.843 35.1782ZM162.386 32.4742C162.386 32.6332 162.306 32.7128 162.147 32.7128H160.077V38.9425C160.077 39.0486 160.051 39.1016 160.024 39.1281C159.998 39.1546 159.918 39.1811 159.812 39.1811H158.591C158.512 39.1811 158.432 39.1546 158.379 39.1281C158.326 39.1016 158.326 39.022 158.326 38.9425V32.7128H156.309C156.176 32.7128 156.097 32.6332 156.097 32.4742V31.4668C156.097 31.3608 156.123 31.3078 156.15 31.2812C156.176 31.2547 156.229 31.2282 156.309 31.2282H162.147C162.227 31.2282 162.306 31.2547 162.333 31.2812C162.36 31.3078 162.386 31.3873 162.386 31.4668V32.4742ZM151.691 36.1325L152.116 34.6745L152.54 33.0574H152.62L153.045 34.6745L153.469 36.1325H151.691ZM153.867 37.511L154.319 38.9955C154.345 39.0751 154.372 39.1281 154.425 39.1546C154.478 39.1811 154.557 39.1811 154.637 39.1811H155.99C156.07 39.1811 156.123 39.1546 156.15 39.1016C156.176 39.0486 156.176 38.9955 156.15 38.9425L153.788 31.8114C153.735 31.6789 153.708 31.5729 153.655 31.4933C153.602 31.4138 153.549 31.3343 153.469 31.3078C153.39 31.2547 153.31 31.2282 153.23 31.2282C153.151 31.2282 153.018 31.2017 152.912 31.2017H152.222C152.116 31.2017 152.01 31.2017 151.93 31.2282C151.85 31.2547 151.771 31.2812 151.691 31.3343C151.638 31.3873 151.559 31.4403 151.532 31.5198C151.479 31.5994 151.452 31.7054 151.399 31.8379L149.037 38.969C149.011 39.022 149.011 39.0751 149.037 39.1281C149.064 39.1811 149.117 39.2076 149.197 39.2076H150.524C150.63 39.2076 150.709 39.1811 150.736 39.1546C150.789 39.1281 150.815 39.0751 150.842 38.9955L151.293 37.564H153.867V37.511ZM147.312 33.8262C147.312 33.7201 147.286 33.6141 147.259 33.4815C147.233 33.349 147.18 33.243 147.074 33.1369C146.994 33.0309 146.861 32.9248 146.729 32.8718C146.569 32.7923 146.384 32.7658 146.171 32.7658H144.685V34.9131H146.171C146.569 34.9131 146.835 34.807 147.021 34.5949C147.206 34.3829 147.312 34.1178 147.312 33.8262ZM144.685 38.9425C144.685 39.0486 144.659 39.1281 144.632 39.1281C144.606 39.1546 144.526 39.1811 144.42 39.1811H143.226C143.146 39.1811 143.066 39.1546 143.013 39.1281C142.96 39.1016 142.96 39.022 142.96 38.9425V31.9175C142.96 31.7054 143.013 31.5463 143.093 31.4138C143.173 31.2812 143.358 31.2282 143.65 31.2282H146.437C146.835 31.2282 147.206 31.2812 147.551 31.4138C147.87 31.5463 148.162 31.7054 148.401 31.9175C148.639 32.1296 148.799 32.3947 148.931 32.7128C149.064 33.0044 149.117 33.349 149.117 33.7201C149.117 33.9057 149.091 34.1708 149.037 34.4624C148.984 34.754 148.852 35.0456 148.639 35.3107C148.427 35.5758 148.135 35.8144 147.764 36.0265C147.392 36.212 146.861 36.3181 146.224 36.3181H144.712V38.9425H144.685ZM141.686 38.916C141.686 38.9955 141.66 39.0751 141.633 39.1016C141.607 39.1546 141.554 39.1546 141.448 39.1546H138.077C137.653 39.1546 137.308 39.1016 137.042 38.969C136.777 38.8365 136.565 38.6774 136.405 38.4919C136.246 38.3063 136.14 38.0677 136.087 37.8291C136.034 37.5905 136.007 37.3254 136.007 37.0603V33.296C136.007 33.0309 136.034 32.7658 136.113 32.5007C136.193 32.2621 136.299 32.0235 136.485 31.8379C136.644 31.6524 136.857 31.4933 137.122 31.3608C137.387 31.2547 137.706 31.1752 138.104 31.1752H141.368C141.448 31.1752 141.527 31.2017 141.554 31.2282C141.58 31.2547 141.607 31.3343 141.607 31.4403V32.3947C141.607 32.5007 141.58 32.5537 141.554 32.6067C141.527 32.6332 141.474 32.6597 141.394 32.6597H138.502C138.21 32.6597 137.998 32.7393 137.918 32.8718C137.812 33.0044 137.759 33.1634 137.759 33.3755V34.2503H141.023C141.103 34.2503 141.182 34.2768 141.209 34.3033C141.235 34.3298 141.235 34.4094 141.235 34.5154V35.3902C141.235 35.4698 141.209 35.5493 141.209 35.6023C141.182 35.6553 141.129 35.6553 141.023 35.6553H137.732V36.9543C137.732 37.2194 137.785 37.405 137.918 37.4845C138.051 37.5905 138.236 37.617 138.475 37.617H141.474C141.58 37.617 141.633 37.6435 141.66 37.6701C141.686 37.6966 141.713 37.7761 141.713 37.8821V38.916H141.686ZM134.282 38.969C134.282 39.0486 134.256 39.1016 134.229 39.1281C134.203 39.1546 134.123 39.1811 134.017 39.1811H132.77C132.61 39.1811 132.531 39.1016 132.531 38.969V32.7393H129.452V38.969C129.452 39.0486 129.426 39.1016 129.399 39.1281C129.373 39.1546 129.293 39.1811 129.187 39.1811H127.94C127.781 39.1811 127.701 39.1016 127.701 38.969V31.997C127.701 31.7319 127.754 31.5463 127.86 31.4138C127.966 31.2812 128.152 31.2282 128.417 31.2282H133.513C133.778 31.2282 133.964 31.2812 134.07 31.4138C134.176 31.5463 134.229 31.7319 134.229 31.997V38.969H134.282ZM124.463 35.2047C124.463 34.86 124.437 34.5419 124.384 34.2238C124.331 33.9057 124.251 33.6406 124.118 33.402C123.986 33.1634 123.826 32.9779 123.588 32.8453C123.375 32.7128 123.083 32.6332 122.738 32.6332C122.446 32.6332 122.208 32.6863 121.969 32.8188C121.756 32.9514 121.571 33.1369 121.438 33.349C121.305 33.5876 121.199 33.8527 121.119 34.1443C121.04 34.4359 121.013 34.7805 121.013 35.0986C121.013 35.4963 121.04 35.8674 121.093 36.1855C121.146 36.5036 121.252 36.7687 121.385 37.0073C121.518 37.2459 121.703 37.405 121.916 37.5375C122.128 37.6701 122.42 37.7231 122.738 37.7231C123.057 37.7231 123.349 37.6435 123.561 37.511C123.773 37.3785 123.959 37.1929 124.092 36.9543C124.224 36.7157 124.304 36.4506 124.384 36.159C124.437 35.8674 124.463 35.5493 124.463 35.2047ZM126.268 35.1782C126.268 35.8409 126.188 36.3976 126.056 36.9278C125.923 37.4315 125.684 37.8556 125.392 38.2268C125.1 38.5714 124.729 38.863 124.277 39.0486C123.826 39.2341 123.296 39.3402 122.685 39.3402C121.518 39.3402 120.642 38.9955 120.058 38.2798C119.474 37.564 119.209 36.5567 119.209 35.2577C119.209 34.6215 119.288 34.0382 119.448 33.5346C119.607 33.0309 119.846 32.5802 120.138 32.2356C120.429 31.891 120.801 31.6259 121.252 31.4138C121.677 31.2282 122.181 31.1222 122.712 31.1222C123.296 31.1222 123.826 31.2282 124.251 31.4138C124.702 31.5994 125.074 31.8645 125.366 32.2356C125.657 32.5802 125.87 33.0044 126.029 33.5081C126.188 33.9852 126.268 34.5419 126.268 35.1782Z" fill="#00557B"/>
  <path fill-rule="evenodd" clip-rule="evenodd" d="M217.983 33.8527L216.975 35.5493L215.064 38.6509C214.984 38.757 214.931 38.8365 214.878 38.916C214.825 38.969 214.772 39.0221 214.719 39.0751C214.666 39.1016 214.586 39.1281 214.507 39.1546C214.427 39.1546 214.321 39.1811 214.215 39.1811H213.763C213.472 39.1811 213.259 39.1016 213.18 38.969C213.073 38.8365 213.02 38.6244 213.02 38.3858V31.4138C213.02 31.2813 213.1 31.2017 213.259 31.2017H214.48C214.586 31.2017 214.666 31.2283 214.666 31.2548C214.692 31.2813 214.719 31.3343 214.719 31.4138V36.5302H214.798L215.754 34.9396L217.718 31.7054C217.797 31.5994 217.85 31.5199 217.903 31.4403C217.956 31.3608 218.01 31.3078 218.063 31.2813C218.116 31.2548 218.195 31.2282 218.275 31.2017C218.355 31.2017 218.434 31.1752 218.567 31.1752H219.045C219.336 31.1752 219.522 31.2283 219.628 31.3608C219.735 31.4668 219.788 31.6789 219.788 31.9705V38.969C219.788 39.1016 219.708 39.1811 219.549 39.1811H218.328C218.222 39.1811 218.142 39.1546 218.116 39.1281C218.089 39.1016 218.063 39.0486 218.063 38.969V33.8792H217.983V33.8527ZM208.536 31.0957C208.907 31.0957 209.252 31.1222 209.597 31.2017C209.942 31.2813 210.26 31.3873 210.526 31.5729C210.791 31.7319 211.004 31.944 211.163 32.2091C211.322 32.4742 211.402 32.7923 211.402 33.19C211.402 33.5611 211.295 33.8792 211.083 34.1973C210.871 34.5154 210.579 34.754 210.207 34.9131V34.9661C210.632 35.0986 210.977 35.3372 211.242 35.6553C211.481 36 211.614 36.3711 211.614 36.7688C211.614 37.1664 211.534 37.511 211.349 37.8291C211.189 38.1472 210.95 38.4123 210.659 38.6244C210.367 38.8365 210.022 38.9956 209.624 39.1281C209.226 39.2341 208.801 39.3137 208.35 39.3137C208.137 39.3137 207.899 39.3137 207.633 39.2872C207.368 39.2607 207.102 39.2341 206.837 39.1811C206.572 39.1281 206.306 39.0751 206.067 38.969C205.802 38.8895 205.59 38.7835 205.377 38.6509C205.298 38.5979 205.271 38.5714 205.271 38.5184C205.271 38.4654 205.271 38.3858 205.324 38.2798L205.722 37.4845C205.749 37.405 205.802 37.352 205.855 37.3255C205.908 37.2989 205.988 37.2989 206.094 37.352C206.227 37.405 206.386 37.458 206.545 37.511C206.704 37.564 206.89 37.6171 207.076 37.6436C207.262 37.6966 207.447 37.7231 207.633 37.7496C207.819 37.7761 208.005 37.8026 208.164 37.8026C208.721 37.8026 209.146 37.6966 209.411 37.4845C209.677 37.2724 209.809 36.9808 209.809 36.6362C209.809 36.3711 209.703 36.159 209.491 35.9735C209.279 35.7879 208.907 35.6819 208.403 35.6819H207.846C207.686 35.6819 207.58 35.6553 207.501 35.6023C207.421 35.5493 207.394 35.4433 207.394 35.2842V34.7805C207.394 34.6215 207.421 34.5154 207.474 34.4624C207.527 34.3829 207.633 34.3564 207.792 34.3564H208.429C208.827 34.3564 209.119 34.2503 209.305 34.0913C209.517 33.9322 209.597 33.7201 209.597 33.4285C209.597 33.1369 209.491 32.9514 209.252 32.8188C209.013 32.6863 208.721 32.6333 208.376 32.6333C208.058 32.6333 207.713 32.6598 207.394 32.7393C207.076 32.8188 206.757 32.8984 206.492 33.0044C206.359 33.0574 206.28 33.0574 206.227 33.0309C206.174 33.0044 206.147 32.9514 206.094 32.8453L205.802 32.1031C205.749 31.9705 205.722 31.891 205.722 31.838C205.722 31.785 205.776 31.7319 205.882 31.6789C206.227 31.4933 206.625 31.3343 207.102 31.2283C207.58 31.1487 208.058 31.0957 208.536 31.0957ZM199.884 33.6671C199.884 33.9322 199.964 34.1708 200.15 34.3299C200.309 34.4889 200.574 34.5685 200.919 34.5685H202.432V32.7393H200.893C200.707 32.7393 200.521 32.7658 200.415 32.8188C200.282 32.8718 200.176 32.9514 200.123 33.0309C200.043 33.1104 199.99 33.2165 199.964 33.3225C199.884 33.4551 199.884 33.5611 199.884 33.6671ZM202.405 35.9735H201.344C200.999 35.9735 200.733 36.053 200.548 36.1855C200.362 36.3181 200.203 36.5832 200.123 36.9543C200.096 37.0604 200.043 37.1929 200.017 37.3785C199.964 37.564 199.911 37.7496 199.858 37.9352C199.804 38.1207 199.751 38.3328 199.698 38.4919C199.645 38.6774 199.619 38.81 199.592 38.916C199.566 39.0221 199.486 39.1016 199.406 39.1016C199.3 39.1281 199.221 39.1281 199.141 39.1281H197.894C197.788 39.1281 197.735 39.0751 197.735 38.9956C197.735 38.969 197.735 38.916 197.761 38.863L198.345 36.6627C198.425 36.3711 198.531 36.1325 198.663 35.947C198.796 35.7614 199.035 35.6023 199.38 35.4963V35.5228C198.929 35.3637 198.61 35.1252 198.425 34.754C198.239 34.4094 198.133 34.0118 198.133 33.5611C198.133 33.2165 198.186 32.8984 198.318 32.6067C198.425 32.3151 198.61 32.0766 198.823 31.8645C199.035 31.6524 199.327 31.4933 199.645 31.3873C199.964 31.2813 200.335 31.2283 200.76 31.2283H203.546C203.812 31.2283 203.998 31.2813 204.104 31.4138C204.183 31.5199 204.236 31.7054 204.236 31.9175V38.9956C204.236 39.0751 204.21 39.1281 204.183 39.1546C204.157 39.1811 204.077 39.1811 203.998 39.1811H202.724C202.618 39.1811 202.538 39.1811 202.511 39.1546C202.485 39.1281 202.458 39.0751 202.458 38.9956V35.9735H202.405ZM192.188 34.2238H193.727C193.807 34.2238 193.913 34.2238 194.019 34.1973C194.125 34.1708 194.205 34.1443 194.285 34.0913C194.364 34.0383 194.444 33.9587 194.497 33.8527C194.55 33.7467 194.577 33.6141 194.577 33.4551C194.577 33.243 194.497 33.0574 194.364 32.9249C194.232 32.7923 194.019 32.7393 193.78 32.7393H192.188V34.2238ZM194.948 36.6362C194.948 36.3446 194.842 36.0795 194.683 35.8939C194.497 35.7084 194.232 35.6023 193.86 35.6023H192.215V37.6436H193.86C194.072 37.6436 194.258 37.6171 194.391 37.5375C194.523 37.4845 194.656 37.3785 194.736 37.2989C194.815 37.1929 194.868 37.0869 194.922 36.9808C194.922 36.8748 194.948 36.7422 194.948 36.6362ZM195.505 34.8336C195.718 34.9131 195.903 35.0191 196.063 35.1782C196.222 35.3107 196.355 35.4698 196.434 35.6553C196.54 35.8144 196.593 36 196.646 36.2121C196.7 36.3976 196.726 36.6097 196.726 36.7953C196.726 37.1664 196.646 37.4845 196.514 37.7761C196.381 38.0677 196.169 38.3328 195.93 38.5449C195.691 38.757 195.399 38.916 195.054 39.0486C194.736 39.1546 194.364 39.2341 193.993 39.2341H191.127C190.861 39.2341 190.675 39.1811 190.569 39.0751C190.49 38.969 190.437 38.7835 190.437 38.5449V31.9705C190.437 31.7319 190.49 31.5464 190.569 31.4403C190.649 31.3343 190.835 31.2813 191.127 31.2813H193.913C194.258 31.2813 194.577 31.3078 194.868 31.3873C195.16 31.4668 195.426 31.5729 195.638 31.7584C195.85 31.9175 196.036 32.1296 196.142 32.3947C196.275 32.6598 196.328 32.9514 196.328 33.296C196.328 33.6141 196.248 33.9057 196.089 34.1973C195.93 34.4624 195.718 34.6745 195.452 34.8336H195.505ZM186.721 37.7231C187.093 37.7231 187.411 37.6701 187.677 37.5905C187.969 37.511 188.207 37.405 188.473 37.3255C188.579 37.2724 188.659 37.2724 188.712 37.2989C188.765 37.3255 188.791 37.3785 188.844 37.458L189.242 38.2798C189.295 38.3858 189.322 38.4654 189.295 38.5184C189.269 38.5714 189.242 38.6244 189.163 38.6509C188.765 38.8895 188.314 39.0751 187.862 39.1546C187.411 39.2341 186.96 39.2872 186.536 39.2872C185.925 39.2872 185.368 39.1811 184.917 38.9956C184.466 38.81 184.094 38.5449 183.802 38.2003C183.51 37.8556 183.298 37.4315 183.165 36.9278C183.032 36.4241 182.953 35.8674 182.953 35.2312C182.953 34.6215 183.032 34.0383 183.218 33.5346C183.404 33.0309 183.643 32.5802 183.961 32.2356C184.28 31.8645 184.678 31.5994 185.129 31.3873C185.58 31.2017 186.084 31.0957 186.615 31.0957C187.013 31.0957 187.385 31.1222 187.756 31.2017C188.128 31.2548 188.499 31.3873 188.844 31.5994C188.924 31.6524 188.977 31.6789 189.004 31.7319C189.03 31.785 189.004 31.8645 188.95 31.997L188.605 32.7923C188.579 32.8984 188.526 32.9514 188.499 32.9779C188.446 33.0044 188.393 33.0044 188.287 32.9514C188.022 32.8453 187.756 32.7658 187.517 32.7393C187.279 32.6863 187.013 32.6598 186.721 32.6598C186.403 32.6598 186.137 32.7393 185.899 32.8453C185.66 32.9779 185.447 33.1634 185.288 33.402C185.129 33.6406 184.996 33.9057 184.917 34.2238C184.837 34.5419 184.784 34.8866 184.784 35.2577C184.784 35.6288 184.811 35.9735 184.89 36.2651C184.943 36.5567 185.076 36.8218 185.209 37.0604C185.368 37.2724 185.554 37.458 185.819 37.564C186.031 37.6701 186.35 37.7231 186.721 37.7231Z" fill="#00557B"/>
</svg>
