<svg width="220" height="52" viewBox="0 0 220 52" fill="none" xmlns="http://www.w3.org/2000/svg">
  <path fill-rule="evenodd" clip-rule="evenodd" d="M12.7648 5.72607C12.3136 6.01767 11.7298 5.88513 11.4379 5.43446C11.146 4.9838 11.2787 4.40059 11.7298 4.10898C13.7998 2.78351 16.0555 1.74963 18.3908 1.06038C20.7527 0.371134 23.1942 0 25.6622 0C32.7479 0 39.1701 2.86303 43.8142 7.50221C48.4584 12.1414 51.3245 18.5567 51.3245 25.6348C51.3245 32.7128 48.4584 39.1281 43.8142 43.7673C39.1701 48.4065 32.7479 51.2695 25.6622 51.2695C23.1942 51.2695 20.7527 50.8984 18.3908 50.2091C16.029 49.5199 13.7998 48.486 11.7033 47.134C11.2521 46.8424 11.146 46.2592 11.4113 45.8085C11.7033 45.3579 12.2871 45.2518 12.7382 45.5169C14.649 46.7629 16.7455 47.7172 18.9216 48.3535C21.0977 48.9897 23.3534 49.3343 25.6622 49.3343C32.2171 49.3343 38.1616 46.6834 42.4608 42.3888C46.76 38.0943 49.4138 32.1561 49.4138 25.6082C49.4138 19.0604 46.76 13.1222 42.4608 8.82769C38.1616 4.58616 32.2171 1.90869 25.6622 1.90869C23.38 1.90869 21.0977 2.2268 18.9216 2.88954C16.772 3.52577 14.6755 4.48012 12.7648 5.72607Z" fill="white"/>
  <path fill-rule="evenodd" clip-rule="evenodd" d="M45.725 26.536H19.4789C18.9747 26.536 18.5766 26.1384 18.5766 25.6347C18.5766 25.131 18.9747 24.7334 19.4789 24.7334H45.725C46.2292 24.7334 46.6273 25.131 46.6273 25.6347C46.6007 26.1384 46.2027 26.536 45.725 26.536Z" fill="white"/>
  <path fill-rule="evenodd" clip-rule="evenodd" d="M45.1942 21.9499H27.2811C26.7769 21.9499 26.3788 21.5522 26.3788 21.0485C26.3788 20.5449 26.7769 20.1472 27.2811 20.1472H45.1942C45.6984 20.1472 46.0965 20.5449 46.0965 21.0485C46.0965 21.5522 45.6984 21.9499 45.1942 21.9499Z" fill="white"/>
  <path fill-rule="evenodd" clip-rule="evenodd" d="M45.1942 31.1222H27.2811C26.7769 31.1222 26.3788 30.7246 26.3788 30.2209C26.3788 29.7172 26.7769 29.3196 27.2811 29.3196H45.1942C45.6984 29.3196 46.0965 29.7172 46.0965 30.2209C46.0965 30.7246 45.6984 31.1222 45.1942 31.1222Z" fill="white"/>
  <path fill-rule="evenodd" clip-rule="evenodd" d="M8.83715 42.3888C9.20868 42.7599 9.20868 43.3696 8.83715 43.7408C8.46562 44.1119 7.85525 44.1119 7.48371 43.7408C5.09529 41.3284 3.2111 38.5184 1.93727 35.4433C0.66345 32.3417 0 29.028 0 25.6347C0 22.2415 0.66345 18.9278 1.93727 15.8527C3.2111 12.7776 5.06876 9.94107 7.48371 7.55521C7.85525 7.18407 8.46562 7.18407 8.83715 7.55521C9.20868 7.92634 9.20868 8.53606 8.83715 8.90719C6.6345 11.134 4.88299 13.7319 3.71532 16.595C2.54765 19.4315 1.91074 22.5066 1.91074 25.6347C1.91074 28.7894 2.52111 31.8645 3.71532 34.701C4.88299 37.5375 6.6345 40.162 8.83715 42.3888Z" fill="white"/>
  <path fill-rule="evenodd" clip-rule="evenodd" d="M12.1809 39.0486C12.5525 39.4197 12.5525 40.0295 12.1809 40.4006C11.8094 40.7717 11.199 40.7717 10.8275 40.4006C8.86368 38.4389 7.35102 36.1326 6.31603 33.6141C5.28105 31.0957 4.72375 28.3918 4.72375 25.6348C4.72375 22.8778 5.28105 20.1738 6.31603 17.6554C7.35102 15.137 8.89022 12.8306 10.8275 10.8689C11.199 10.4978 11.8094 10.4978 12.1809 10.8689C12.5525 11.2401 12.5525 11.8498 12.1809 12.2209C10.4029 14.0236 9.02291 16.1178 8.06754 18.3976C7.13871 20.651 6.63449 23.1163 6.63449 25.6348C6.63449 28.1532 7.13871 30.6186 8.06754 32.8984C9.02291 35.1782 10.4029 37.2725 12.1809 39.0486Z" fill="white"/>
  <path fill-rule="evenodd" clip-rule="evenodd" d="M15.4982 35.7083C15.8697 36.0794 15.8697 36.6891 15.4982 37.0603C15.1266 37.4314 14.5163 37.4314 14.1447 37.0603C12.6321 35.5492 11.4644 33.7466 10.6683 31.8114C9.87212 29.8762 9.44751 27.7819 9.44751 25.6346C9.44751 23.5139 9.87212 21.3931 10.6683 19.4579C11.4644 17.5227 12.6586 15.7201 14.1447 14.209C14.5163 13.8379 15.1266 13.8379 15.4982 14.209C15.8697 14.5801 15.8697 15.1899 15.4982 15.561C14.1713 16.913 13.1363 18.4771 12.4198 20.1737C11.7032 21.8703 11.3317 23.726 11.3317 25.6081C11.3317 27.4903 11.7032 29.346 12.4198 31.0426C13.1363 32.7922 14.1713 34.3563 15.4982 35.7083Z" fill="white"/>
  <path fill-rule="evenodd" clip-rule="evenodd" d="M66.743 17.3638V24.9456C66.743 25.1046 66.7165 25.2107 66.6634 25.2637C66.6104 25.3167 66.5042 25.3432 66.3184 25.3432H64.4077C64.275 25.3432 64.1423 25.3167 64.0892 25.2637C64.0096 25.2107 63.9831 25.1046 63.9831 24.9721V13.7851C63.9831 13.3079 64.0627 12.9898 64.2485 12.7777C64.4077 12.5921 64.7262 12.4861 65.1773 12.4861H65.9469C66.1327 12.4861 66.2919 12.4861 66.4246 12.5126C66.5573 12.5391 66.6634 12.5656 66.7696 12.6451C66.8757 12.6982 66.9553 12.7777 67.035 12.9102C67.1146 13.0163 67.2207 13.1488 67.3269 13.3344L70.4318 18.0796L71.9976 20.545H72.0772V12.8837C72.0772 12.7247 72.1037 12.6451 72.1568 12.5921C72.2099 12.5391 72.316 12.5126 72.5018 12.5126H74.4125C74.7044 12.5126 74.8371 12.6451 74.8371 12.8837V24.0708C74.8371 24.4684 74.7575 24.76 74.5983 24.9986C74.4391 25.2372 74.1206 25.3432 73.6429 25.3432H72.8733C72.6876 25.3432 72.5283 25.3432 72.3956 25.3167C72.2629 25.2902 72.1568 25.2637 72.0506 25.1842C71.9445 25.1312 71.8649 25.0516 71.7853 24.9456C71.7056 24.8395 71.5995 24.707 71.4933 24.5214L68.5742 20.0943L66.8227 17.3638H66.743Z" fill="white"/>
  <path fill-rule="evenodd" clip-rule="evenodd" d="M80.994 25.3166C80.304 25.3166 79.7467 25.2105 79.3221 25.025C78.8975 24.8394 78.5525 24.5743 78.2871 24.2562C78.0217 23.9381 77.8625 23.5669 77.7563 23.1693C77.6502 22.7717 77.5971 22.3475 77.5971 21.9499V12.8836C77.5971 12.7245 77.6236 12.645 77.7033 12.592C77.7829 12.539 77.889 12.5125 78.0217 12.5125H79.959C80.1448 12.5125 80.2509 12.539 80.304 12.592C80.3571 12.645 80.3836 12.751 80.3836 12.9101V21.7908C80.3836 22.2415 80.4898 22.5596 80.7286 22.7186C80.9674 22.8777 81.2594 22.9572 81.6043 22.9572H86.2485C86.3812 22.9572 86.4873 22.9837 86.5139 23.0102C86.567 23.0633 86.5935 23.1693 86.5935 23.3284V24.9454C86.5935 25.2105 86.4873 25.3166 86.2485 25.3166H80.994Z" fill="white"/>
  <path fill-rule="evenodd" clip-rule="evenodd" d="M87.9469 16.0118C87.9469 15.5081 88.0265 15.0309 88.2123 14.5537C88.3981 14.1031 88.6634 13.7054 89.0084 13.3608C89.3534 13.0162 89.8046 12.7511 90.3619 12.5655C90.9192 12.38 91.5561 12.2739 92.2992 12.2739C92.6441 12.2739 92.9891 12.3004 93.3607 12.3269C93.7322 12.3535 94.1037 12.4065 94.4487 12.486C94.8203 12.5655 95.1653 12.6451 95.4837 12.7511C95.8022 12.8571 96.1206 12.9632 96.386 13.0957C96.5452 13.1753 96.6249 13.2283 96.6249 13.3078C96.6514 13.3873 96.6248 13.4934 96.5718 13.6789L96.0941 15.0574C96.041 15.2165 95.9614 15.3225 95.9083 15.349C95.8552 15.3755 95.7491 15.3755 95.5899 15.3225C95.006 15.1635 94.4487 15.0044 93.8649 14.8984C93.3076 14.7923 92.7768 14.7393 92.2726 14.7393C91.7419 14.7393 91.3703 14.8454 91.1315 15.0309C90.9192 15.2165 90.813 15.4551 90.813 15.7467C90.813 15.9057 90.8396 16.0383 90.9192 16.1973C90.9988 16.3299 91.1049 16.4624 91.2642 16.595C91.4234 16.7275 91.6622 16.8601 91.9276 16.9926C92.193 17.1252 92.538 17.2842 92.9361 17.4433C93.5464 17.6819 94.1303 17.947 94.661 18.1856C95.1918 18.4241 95.6429 18.7158 96.0145 19.0339C96.386 19.352 96.6779 19.7231 96.8902 20.1473C97.1025 20.5714 97.2087 21.0751 97.2087 21.6848C97.2087 22.3211 97.1025 22.9043 96.8637 23.3549C96.6248 23.8321 96.3064 24.2297 95.8818 24.5479C95.4572 24.866 94.953 25.1046 94.3691 25.2636C93.7853 25.4227 93.1218 25.5022 92.4318 25.5022C92.0338 25.5022 91.6357 25.4757 91.2111 25.4492C90.7865 25.3962 90.3619 25.3431 89.9373 25.2371C89.5127 25.1576 89.1146 25.025 88.69 24.8925C88.2919 24.7599 87.9204 24.5744 87.5754 24.3623C87.4692 24.3093 87.4162 24.2297 87.3896 24.1502C87.3631 24.0707 87.3896 23.9646 87.4427 23.8056L88.0531 22.3476C88.1061 22.215 88.1858 22.109 88.2654 22.0825C88.345 22.056 88.4511 22.0825 88.5838 22.1355C88.8227 22.2415 89.0881 22.3211 89.38 22.4271C89.6719 22.5331 89.9638 22.6127 90.2823 22.6922C90.6007 22.7717 90.9192 22.8512 91.2376 22.9043C91.5561 22.9573 91.8745 22.9838 92.193 22.9838C92.5645 22.9838 92.883 22.9573 93.1484 22.8778C93.4138 22.7982 93.5995 22.7187 93.7587 22.5861C93.918 22.4801 94.0241 22.3476 94.0772 22.1885C94.1303 22.0294 94.1568 21.8704 94.1568 21.7113C94.1568 21.5258 94.1303 21.3667 94.0507 21.2077C93.971 21.0486 93.8649 20.916 93.7322 20.7835C93.573 20.651 93.3607 20.5184 93.1218 20.3859C92.8565 20.2533 92.538 20.1208 92.1399 19.9617C91.503 19.7231 90.9192 19.458 90.3884 19.2194C89.8577 18.9543 89.4065 18.6892 89.035 18.3711C88.6634 18.053 88.3715 17.7084 88.1592 17.3373C88.0531 16.9661 87.9469 16.5155 87.9469 16.0118Z" fill="white"/>
  <path fill-rule="evenodd" clip-rule="evenodd" d="M211.641 17.3636V24.9454C211.641 25.1044 211.614 25.2105 211.561 25.2635C211.508 25.3165 211.402 25.343 211.216 25.343H209.305C209.146 25.343 209.04 25.3165 208.987 25.2635C208.934 25.2105 208.881 25.1044 208.881 24.9719V13.7848C208.881 13.3077 208.96 12.9895 209.146 12.7775C209.305 12.5919 209.624 12.4859 210.075 12.4859H210.844C211.03 12.4859 211.189 12.4859 211.322 12.5124C211.455 12.5389 211.561 12.5654 211.667 12.6184C211.773 12.6714 211.853 12.7775 211.932 12.8835C212.012 12.9895 212.118 13.1221 212.224 13.3077L215.329 18.0529L216.895 20.5183H216.975V12.8835C216.975 12.7244 217.001 12.6449 217.054 12.5919C217.107 12.5389 217.213 12.5124 217.399 12.5124H219.31C219.602 12.5124 219.735 12.6449 219.735 12.91V24.0971C219.735 24.4947 219.655 24.7863 219.496 25.0249C219.337 25.237 219.018 25.3695 218.54 25.3695H217.771C217.585 25.3695 217.426 25.3695 217.293 25.343C217.16 25.3165 217.054 25.29 216.948 25.237C216.842 25.1839 216.762 25.1044 216.683 24.9984C216.603 24.8923 216.497 24.7598 216.391 24.5742L213.472 20.1471L211.72 17.4166H211.641V17.3636ZM200.043 20.4122L200.733 18.0794L201.423 15.4549H201.53L202.22 18.0794L202.909 20.4122H200.043ZM203.573 22.6655L204.289 25.0514C204.316 25.1839 204.396 25.2635 204.475 25.29C204.555 25.3165 204.688 25.343 204.82 25.343H206.996C207.129 25.343 207.209 25.29 207.235 25.2105C207.262 25.1309 207.262 25.0514 207.235 24.9719L203.414 13.4932C203.334 13.2811 203.254 13.0956 203.175 12.963C203.095 12.8305 202.989 12.7244 202.883 12.6449C202.777 12.5654 202.644 12.5389 202.511 12.5124C202.352 12.4859 202.193 12.4859 201.981 12.4859H200.893C200.707 12.4859 200.548 12.5124 200.415 12.5389C200.282 12.5654 200.15 12.6184 200.043 12.6979C199.937 12.7775 199.858 12.8835 199.778 12.9895C199.698 13.1221 199.619 13.2811 199.566 13.4932L195.744 24.9719C195.718 25.0779 195.718 25.1574 195.744 25.237C195.771 25.3165 195.85 25.343 195.983 25.343H198.133C198.292 25.343 198.425 25.3165 198.478 25.2635C198.557 25.2105 198.584 25.1309 198.637 24.9984L199.353 22.6655H203.573ZM196.408 14.5271C196.408 14.7657 196.275 14.8982 196.036 14.8982H192.719V24.9454C192.719 25.1044 192.692 25.2105 192.639 25.2635C192.586 25.3165 192.454 25.343 192.294 25.343H190.33C190.198 25.343 190.065 25.3165 190.012 25.2635C189.932 25.2105 189.906 25.1044 189.906 24.9719V14.8982H186.668C186.429 14.8982 186.323 14.7657 186.323 14.5271V12.91C186.323 12.751 186.35 12.6449 186.403 12.5919C186.456 12.5389 186.536 12.5124 186.668 12.5124H196.036C196.195 12.5124 196.275 12.5389 196.328 12.5919C196.381 12.6449 196.408 12.751 196.408 12.91V14.5271ZM176.239 16.0116C176.239 15.508 176.318 15.0308 176.504 14.5536C176.69 14.1029 176.955 13.7053 177.3 13.3872C177.645 13.0426 178.096 12.7775 178.654 12.5919C179.211 12.4063 179.848 12.3003 180.591 12.3003C180.936 12.3003 181.281 12.3268 181.653 12.3533C182.024 12.3798 182.396 12.4328 182.741 12.5124C183.112 12.5919 183.457 12.6714 183.776 12.7775C184.094 12.8835 184.413 12.9895 184.678 13.1221C184.837 13.2016 184.917 13.2546 184.917 13.3342C184.943 13.4137 184.917 13.5197 184.864 13.7053L184.386 15.0838C184.333 15.2429 184.253 15.3489 184.2 15.3754C184.147 15.4019 184.041 15.4019 183.882 15.3489C183.298 15.1898 182.741 15.0308 182.157 14.9247C181.599 14.8187 181.042 14.7657 180.565 14.7657C180.034 14.7657 179.662 14.8717 179.423 15.0573C179.211 15.2429 179.105 15.4814 179.105 15.773C179.105 15.9321 179.131 16.0647 179.211 16.2237C179.291 16.3563 179.397 16.4888 179.556 16.6214C179.715 16.7539 179.928 16.8864 180.22 17.019C180.485 17.1515 180.83 17.3106 181.228 17.4697C181.838 17.7082 182.422 17.9733 182.953 18.2119C183.484 18.4505 183.935 18.7421 184.306 19.0602C184.678 19.3783 184.97 19.7495 185.182 20.1736C185.394 20.5978 185.501 21.1015 185.501 21.7112C185.501 22.3474 185.394 22.9306 185.156 23.3813C184.917 23.8585 184.598 24.2561 184.174 24.5742C183.749 24.8923 183.245 25.1309 182.661 25.29C182.077 25.449 181.414 25.5286 180.724 25.5286C180.326 25.5286 179.928 25.5021 179.503 25.4756C179.078 25.4225 178.654 25.3695 178.229 25.2635C177.805 25.1839 177.406 25.0514 176.982 24.9188C176.584 24.7863 176.212 24.6007 175.867 24.3887C175.761 24.3356 175.708 24.2561 175.682 24.1766C175.655 24.0971 175.682 23.991 175.735 23.832L176.345 22.3739C176.398 22.2414 176.478 22.1353 176.557 22.1088C176.637 22.0823 176.743 22.1088 176.876 22.1619C177.115 22.2679 177.38 22.3739 177.672 22.4535C177.964 22.5595 178.256 22.639 178.574 22.7186C178.893 22.7981 179.211 22.8776 179.53 22.9306C179.848 22.9837 180.166 23.0102 180.485 23.0102C180.856 23.0102 181.175 22.9837 181.44 22.9041C181.706 22.8246 181.891 22.7451 182.051 22.6125C182.21 22.5065 182.316 22.3739 182.369 22.2149C182.422 22.0558 182.449 21.8968 182.449 21.7377C182.449 21.5521 182.422 21.3931 182.343 21.234C182.263 21.075 182.157 20.9424 182.024 20.8099C181.865 20.6773 181.653 20.5448 181.414 20.4122C181.148 20.2797 180.83 20.1471 180.432 19.9881C179.795 19.7495 179.211 19.4844 178.68 19.2458C178.15 18.9807 177.698 18.7156 177.327 18.3975C176.955 18.0794 176.663 17.7348 176.451 17.3636C176.345 16.966 176.239 16.5153 176.239 16.0116ZM173.744 24.9454C173.744 25.1044 173.718 25.2105 173.665 25.2635C173.612 25.3165 173.479 25.343 173.32 25.343H171.409C171.25 25.343 171.144 25.3165 171.09 25.2635C171.037 25.2105 171.011 25.1044 171.011 24.9719V19.829H166.048V24.9454C166.048 25.1044 166.022 25.2105 165.969 25.2635C165.916 25.3165 165.783 25.343 165.624 25.343H163.686C163.554 25.343 163.421 25.3165 163.368 25.2635C163.288 25.2105 163.262 25.1044 163.262 24.9719V12.91C163.262 12.7775 163.288 12.6714 163.368 12.6184C163.447 12.5654 163.554 12.5389 163.686 12.5389H165.624C165.809 12.5389 165.916 12.5654 165.969 12.6184C166.022 12.6714 166.048 12.7775 166.048 12.9365V17.4962H171.011V12.91C171.011 12.7775 171.037 12.6714 171.09 12.6184C171.144 12.5654 171.25 12.5389 171.409 12.5389H173.32C173.505 12.5389 173.612 12.5654 173.665 12.6184C173.718 12.6714 173.744 12.7775 173.744 12.9365V24.9454ZM157.291 17.1781L161.563 24.8658C161.643 24.9984 161.669 25.1044 161.643 25.1839C161.616 25.2635 161.51 25.3165 161.378 25.3165H159.254C158.989 25.3165 158.803 25.29 158.697 25.2635C158.591 25.237 158.458 25.1044 158.352 24.8923L155.406 19.4314L153.469 21.7642V24.9454C153.469 25.1044 153.443 25.2105 153.39 25.2635C153.337 25.3165 153.23 25.3165 153.045 25.3165H151.134C151.001 25.3165 150.868 25.29 150.815 25.237C150.736 25.1839 150.709 25.0779 150.709 24.9454V12.91C150.709 12.7775 150.736 12.6714 150.815 12.6184C150.895 12.5654 151.001 12.5389 151.134 12.5389H153.045C153.23 12.5389 153.337 12.5654 153.39 12.5919C153.443 12.6449 153.469 12.751 153.469 12.91V17.8143L153.549 17.8408L155.274 15.667L157.556 12.804C157.662 12.6714 157.768 12.5919 157.875 12.5654C157.981 12.5389 158.166 12.5124 158.405 12.5124H160.767C160.873 12.5124 160.953 12.5389 161.006 12.6184C161.059 12.6979 161.033 12.7775 160.953 12.857L157.291 17.1781ZM141.872 20.4122H144.738L144.048 18.0794L143.358 15.4549H143.252L142.562 18.0794L141.872 20.4122ZM145.402 22.6655H141.209L140.492 24.9984C140.466 25.1309 140.413 25.2105 140.333 25.2635C140.253 25.3165 140.147 25.343 139.988 25.343H137.838C137.706 25.343 137.626 25.3165 137.599 25.237C137.573 25.1574 137.573 25.0779 137.599 24.9719L141.394 13.4932C141.447 13.2811 141.527 13.1221 141.607 12.9895C141.686 12.857 141.766 12.751 141.872 12.6979C141.978 12.6184 142.084 12.5654 142.244 12.5389C142.376 12.5124 142.536 12.4859 142.721 12.4859H143.809C144.022 12.4859 144.181 12.4859 144.34 12.5124C144.499 12.5389 144.606 12.5654 144.738 12.6449C144.844 12.7244 144.951 12.8305 145.03 12.963C145.11 13.0956 145.189 13.2811 145.269 13.4932L149.09 24.9719C149.117 25.0514 149.117 25.1309 149.09 25.2105C149.064 25.29 148.984 25.343 148.852 25.343H146.675C146.543 25.343 146.437 25.3165 146.33 25.29C146.251 25.2635 146.171 25.1839 146.145 25.0514L145.402 22.6655ZM136.644 14.156C136.644 14.4476 136.565 14.6862 136.432 14.9247C136.299 15.1633 136.14 15.3754 135.981 15.5875L130.036 22.8246L130.063 22.9571H136.352C136.485 22.9571 136.565 22.9837 136.618 23.0367C136.671 23.0897 136.671 23.1957 136.671 23.3548V24.9454C136.671 25.1044 136.644 25.1839 136.618 25.237C136.565 25.29 136.485 25.3165 136.352 25.3165H127.409C127.064 25.3165 126.799 25.237 126.613 25.0779C126.427 24.9188 126.347 24.6803 126.347 24.3091V23.8585C126.347 23.5669 126.4 23.3018 126.507 23.0897C126.613 22.8776 126.745 22.6655 126.931 22.4269L133.115 14.9247L133.088 14.8187H127.515C127.276 14.8187 127.17 14.6862 127.17 14.4211V12.8305C127.17 12.6714 127.197 12.5389 127.223 12.5124C127.276 12.4594 127.356 12.4328 127.515 12.4328H135.503C135.901 12.4328 136.166 12.5124 136.352 12.6449C136.511 12.804 136.618 13.0691 136.618 13.4667V14.156H136.644ZM118.359 20.4122H121.226L120.536 18.0794L119.846 15.4549H119.739L119.049 18.0794L118.359 20.4122ZM121.889 22.6655H117.696L116.979 24.9984C116.953 25.1309 116.9 25.2105 116.82 25.2635C116.741 25.3165 116.634 25.343 116.475 25.343H114.326C114.193 25.343 114.113 25.3165 114.087 25.237C114.06 25.1574 114.06 25.0779 114.087 24.9719L117.908 13.4932C117.961 13.2811 118.041 13.1221 118.121 12.9895C118.2 12.857 118.28 12.751 118.386 12.6979C118.492 12.6184 118.625 12.5654 118.758 12.5389C118.89 12.5124 119.049 12.4859 119.235 12.4859H120.323C120.536 12.4859 120.695 12.4859 120.854 12.5124C121.013 12.5389 121.119 12.5654 121.226 12.6449C121.332 12.7244 121.438 12.8305 121.517 12.963C121.597 13.0956 121.677 13.2811 121.756 13.4932L125.551 24.9719C125.578 25.0514 125.578 25.1309 125.551 25.2105C125.525 25.29 125.445 25.343 125.312 25.343H123.136C123.004 25.343 122.897 25.3165 122.791 25.29C122.712 25.2635 122.632 25.1839 122.606 25.0514L121.889 22.6655ZM109.283 17.1781L113.556 24.8658C113.636 24.9984 113.662 25.1044 113.636 25.1839C113.609 25.2635 113.503 25.3165 113.37 25.3165H111.247C110.982 25.3165 110.796 25.29 110.69 25.2635C110.584 25.237 110.451 25.1044 110.345 24.8923L107.399 19.4314L105.462 21.7642V24.9454C105.462 25.1044 105.435 25.2105 105.382 25.2635C105.329 25.3165 105.223 25.3165 105.037 25.3165H103.127C102.994 25.3165 102.861 25.29 102.808 25.237C102.729 25.1839 102.702 25.0779 102.702 24.9454V12.91C102.702 12.7775 102.729 12.6714 102.808 12.6184C102.888 12.5654 102.994 12.5389 103.127 12.5389H105.037C105.223 12.5389 105.329 12.5654 105.382 12.5919C105.435 12.6449 105.462 12.751 105.462 12.91V17.8143L105.542 17.8408L107.267 15.667L109.549 12.804C109.655 12.6714 109.761 12.5919 109.867 12.5654C109.973 12.5389 110.159 12.5124 110.398 12.5124H112.76C112.866 12.5124 112.946 12.5389 112.999 12.6184C113.052 12.6979 113.025 12.7775 112.946 12.857L109.283 17.1781Z" fill="white"/>
  <path fill-rule="evenodd" clip-rule="evenodd" d="M110.292 30.9365C110.053 30.9365 109.841 30.91 109.655 30.8305C109.443 30.751 109.257 30.6714 109.098 30.5389C108.912 30.4064 108.753 30.2738 108.62 30.1147C108.461 29.9557 108.328 29.7966 108.222 29.6111C108.195 29.5846 108.195 29.558 108.169 29.505C108.142 29.452 108.169 29.399 108.248 29.346L108.7 28.9218C108.779 28.8688 108.832 28.8423 108.859 28.8688C108.885 28.8953 108.938 28.9218 108.992 28.9748C109.23 29.2134 109.469 29.399 109.708 29.5315C109.947 29.6641 110.186 29.7436 110.398 29.7436C110.478 29.7436 110.584 29.7436 110.663 29.7171C110.77 29.6906 110.876 29.6641 110.982 29.6111C111.088 29.558 111.221 29.4785 111.353 29.3725C111.486 29.2664 111.645 29.1339 111.831 28.9483C111.911 28.8953 111.964 28.8688 111.99 28.8688C112.017 28.8688 112.043 28.8953 112.096 28.9218L112.521 29.293C112.601 29.3725 112.627 29.4255 112.627 29.452C112.627 29.4785 112.601 29.5315 112.574 29.558C111.858 30.4859 111.115 30.9365 110.292 30.9365ZM111.964 33.8526L110.955 35.5492L109.045 38.6508C108.965 38.7569 108.912 38.8364 108.859 38.9159C108.806 38.9689 108.753 39.022 108.7 39.075C108.647 39.1015 108.567 39.128 108.487 39.1545C108.408 39.1545 108.302 39.181 108.195 39.181H107.744C107.452 39.181 107.24 39.1015 107.16 38.9689C107.054 38.8364 107.001 38.6243 107.001 38.3857V31.4137C107.001 31.2812 107.081 31.2016 107.24 31.2016H108.461C108.567 31.2016 108.62 31.2282 108.647 31.2547C108.673 31.2812 108.7 31.3342 108.7 31.4137V36.5301H108.779L109.735 34.9395L111.698 31.7053C111.778 31.5993 111.831 31.5198 111.884 31.4402C111.937 31.3607 111.99 31.3077 112.043 31.2812C112.096 31.2547 112.176 31.2281 112.256 31.2016C112.335 31.2016 112.415 31.1751 112.548 31.1751H113.025C113.317 31.1751 113.503 31.2282 113.609 31.3607C113.715 31.4667 113.768 31.6788 113.768 31.9704V38.9689C113.768 39.1015 113.689 39.181 113.53 39.181H112.309C112.203 39.181 112.123 39.1545 112.096 39.128C112.07 39.1015 112.043 39.0485 112.043 38.9689V33.8791H111.964V33.8526ZM101.03 36.5831C101.03 36.2915 100.951 36.0264 100.765 35.8408C100.579 35.6552 100.314 35.5492 99.9421 35.5492H98.2702V37.67H99.9156C100.128 37.67 100.314 37.6435 100.446 37.5639C100.579 37.4844 100.712 37.4049 100.791 37.2988C100.871 37.1928 100.951 37.0868 100.977 36.9542C101.004 36.8217 101.03 36.6891 101.03 36.5831ZM105.276 38.9689C105.276 39.0485 105.25 39.1015 105.223 39.128C105.197 39.1545 105.144 39.181 105.037 39.181H103.764C103.604 39.181 103.525 39.1015 103.525 38.9689V31.4402C103.525 31.3077 103.604 31.2282 103.764 31.2282H105.037C105.144 31.2282 105.197 31.2547 105.223 31.2812C105.25 31.3077 105.276 31.3607 105.276 31.4402V38.9689ZM97.2087 39.181C96.9433 39.181 96.7575 39.128 96.6514 39.022C96.5718 38.9159 96.5187 38.7304 96.5187 38.4918V31.4402C96.5187 31.3077 96.5983 31.2282 96.7575 31.2282H98.0314C98.1375 31.2282 98.1906 31.2547 98.2171 31.2812C98.2437 31.3077 98.2702 31.3607 98.2702 31.4402V34.1177H99.9421C100.606 34.1177 101.136 34.2237 101.534 34.4093C101.932 34.5949 102.198 34.8334 102.41 35.0985C102.596 35.3636 102.729 35.6552 102.755 35.9469C102.808 36.2385 102.835 36.477 102.835 36.6626C102.835 37.0337 102.755 37.3519 102.622 37.67C102.49 37.9881 102.277 38.2532 102.039 38.4653C101.8 38.6773 101.508 38.8629 101.163 38.9955C100.844 39.128 100.473 39.181 100.101 39.181H97.2087ZM94.8203 38.9424C94.8203 39.0485 94.7937 39.1015 94.7672 39.128C94.7406 39.1545 94.661 39.181 94.5549 39.181H93.3607C93.2545 39.181 93.2014 39.1545 93.1484 39.128C93.1218 39.1015 93.0953 39.022 93.0953 38.9424V35.7613H90.0169V38.9424C90.0169 39.0485 89.9903 39.1015 89.9638 39.128C89.9373 39.1545 89.8577 39.181 89.7515 39.181H88.5573C88.4777 39.181 88.3981 39.1545 88.345 39.128C88.2919 39.1015 88.2919 39.022 88.2919 38.9424V31.4667C88.2919 31.3872 88.3184 31.3077 88.345 31.2812C88.3981 31.2547 88.4511 31.2282 88.5573 31.2282H89.7515C89.8577 31.2282 89.9373 31.2547 89.9638 31.2812C89.9903 31.3077 90.0169 31.3872 90.0169 31.4667V34.3033H93.0953V31.4667C93.0953 31.3872 93.1218 31.3077 93.1484 31.2812C93.1749 31.2547 93.2545 31.2282 93.3607 31.2282H94.5549C94.661 31.2282 94.7406 31.2547 94.7672 31.2812C94.7937 31.3077 94.8203 31.3872 94.8203 31.4667V38.9424ZM84.8154 33.8526L83.807 35.5492L81.8963 38.6508C81.8166 38.7569 81.7636 38.8364 81.7105 38.9159C81.6574 38.9689 81.6043 39.022 81.5513 39.075C81.4982 39.1015 81.4186 39.128 81.339 39.1545C81.2593 39.1545 81.1532 39.181 81.047 39.181H80.5959C80.304 39.181 80.0917 39.1015 80.0121 38.9689C79.9059 38.8364 79.8528 38.6243 79.8528 38.3857V31.4137C79.8528 31.2812 79.9324 31.2016 80.0917 31.2016H81.3124C81.4186 31.2016 81.4716 31.2282 81.4982 31.2547C81.5247 31.2812 81.5247 31.3342 81.5247 31.4137V36.5301H81.6043L82.5597 34.9395L84.5235 31.7053C84.6031 31.5993 84.6562 31.5198 84.7093 31.4402C84.7624 31.3607 84.8154 31.3077 84.8685 31.2812C84.9216 31.2547 85.0012 31.2281 85.0808 31.2016C85.1604 31.2016 85.24 31.1751 85.3727 31.1751H85.8504C86.1423 31.1751 86.3281 31.2282 86.4343 31.3607C86.5404 31.4667 86.5935 31.6788 86.5935 31.9704V38.9689C86.5935 39.1015 86.5139 39.181 86.3546 39.181H85.1339C85.0277 39.181 84.9481 39.1545 84.9216 39.128C84.895 39.1015 84.8685 39.0485 84.8685 38.9689V33.8791H84.8154V33.8526ZM75.9783 32.7392H73.8818C73.8022 33.561 73.7226 34.2237 73.6429 34.8069C73.5633 35.3636 73.5103 35.8408 73.4306 36.212C73.3776 36.5831 73.2979 36.9012 73.2449 37.1398C73.1653 37.3784 73.1122 37.5639 73.006 37.723H75.9783V32.7392ZM71.8649 39.181C71.8384 39.4461 71.8384 39.7377 71.8118 40.0028C71.7853 40.2679 71.7587 40.5595 71.7322 40.8246C71.7322 40.9837 71.6526 41.0632 71.4934 41.0632H70.5911C70.4584 41.0632 70.3788 40.9837 70.3788 40.8246L70.2461 38.2797C70.2461 38.1206 70.2726 38.0146 70.3257 37.9086C70.3788 37.8025 70.4849 37.7495 70.6707 37.6965L71.0687 37.67C71.228 37.5109 71.3341 37.3519 71.4403 37.1928C71.5464 37.0072 71.6261 36.8217 71.6791 36.6361C71.7322 36.4505 71.7853 36.2385 71.8118 36.0529C71.8384 35.8673 71.8649 35.6552 71.8914 35.4697L72.2895 32.315C72.316 32.156 72.3426 31.9969 72.3691 31.8644C72.3957 31.7318 72.4487 31.5993 72.5018 31.5198C72.5549 31.4137 72.661 31.3607 72.7672 31.3077C72.8733 31.2547 73.0326 31.2282 73.2183 31.2282H76.9602C77.2521 31.2282 77.4644 31.2812 77.5706 31.4137C77.6767 31.5463 77.7298 31.7318 77.7298 31.9969V37.6965L78.2075 37.723C78.3932 37.7495 78.4994 37.776 78.5525 37.8555C78.6055 37.9351 78.6321 38.0411 78.6321 38.1471L78.4729 40.7981C78.4729 40.8776 78.4463 40.9307 78.4198 40.9572C78.3932 40.9837 78.3402 41.0102 78.2605 41.0102H77.2786C77.146 41.0102 77.0663 40.9307 77.0663 40.7716L77.0133 39.128H71.8649V39.181ZM69.6622 38.9159C69.6622 38.9955 69.6357 39.075 69.6092 39.1015C69.5826 39.1545 69.5295 39.1545 69.4234 39.1545H66.0796C65.655 39.1545 65.31 39.1015 65.0446 38.9689C64.7792 38.8364 64.5669 38.6773 64.4077 38.4918C64.2485 38.3062 64.1423 38.0676 64.0893 37.829C64.0362 37.5904 64.0096 37.3254 64.0096 37.0603V33.2959C64.0096 33.0308 64.0362 32.7657 64.1158 32.5006C64.1954 32.262 64.3016 32.0234 64.4608 31.8379C64.62 31.6523 64.8323 31.4932 65.0977 31.3607C65.3631 31.2547 65.6815 31.1751 66.0796 31.1751H69.3438C69.4234 31.1751 69.503 31.2016 69.5295 31.2282C69.5561 31.2547 69.5826 31.3342 69.5826 31.4402V32.3946C69.5826 32.5006 69.5561 32.5536 69.5295 32.6066C69.503 32.6332 69.4499 32.6597 69.3703 32.6597H66.4777C66.1858 32.6597 65.9735 32.7392 65.8938 32.8717C65.7877 33.0043 65.7346 33.1633 65.7346 33.3754V34.2502H68.9988C69.0784 34.2502 69.158 34.2767 69.1846 34.3033C69.2111 34.3298 69.2376 34.4093 69.2376 34.5153V35.3902C69.2376 35.4697 69.2376 35.5492 69.1846 35.5757C69.158 35.6287 69.1049 35.6287 68.9988 35.6287H65.7346V36.9277C65.7346 37.1928 65.7877 37.3784 65.9204 37.4579C66.0531 37.5639 66.2388 37.5904 66.4777 37.5904H69.4765C69.5826 37.5904 69.6357 37.617 69.6622 37.6435C69.6888 37.67 69.6888 37.7495 69.6888 37.8555V38.9159H69.6622Z" fill="white"/>
  <path fill-rule="evenodd" clip-rule="evenodd" d="M175.655 33.826C175.655 33.72 175.628 33.614 175.602 33.4814C175.575 33.3489 175.522 33.2428 175.416 33.1368C175.337 33.0308 175.204 32.9247 175.071 32.8717C174.912 32.7922 174.726 32.7657 174.514 32.7657H173.028V34.9129H174.514C174.912 34.9129 175.177 34.8069 175.363 34.5948C175.575 34.3827 175.655 34.1177 175.655 33.826ZM173.028 38.9424C173.028 39.0484 173.001 39.128 172.975 39.128C172.948 39.1545 172.869 39.181 172.762 39.181H171.568C171.489 39.181 171.409 39.1545 171.382 39.128C171.329 39.1015 171.329 39.0219 171.329 38.9424V31.9174C171.329 31.7053 171.382 31.5462 171.462 31.4137C171.542 31.2811 171.727 31.2281 172.019 31.2281H174.806C175.204 31.2281 175.575 31.2811 175.92 31.4137C176.239 31.5462 176.531 31.7053 176.77 31.9174C177.008 32.1294 177.168 32.3945 177.3 32.7126C177.433 33.0042 177.486 33.3489 177.486 33.72C177.486 33.9056 177.46 34.1707 177.407 34.4623C177.353 34.7539 177.221 35.0455 177.008 35.3106C176.796 35.5757 176.504 35.8143 176.133 36.0263C175.761 36.2119 175.23 36.3179 174.593 36.3179H173.028V38.9424ZM168.012 35.2045C168.012 34.8599 167.986 34.5418 167.932 34.2237C167.879 33.9056 167.8 33.6405 167.667 33.4019C167.534 33.1633 167.375 32.9777 167.136 32.8452C166.924 32.7126 166.632 32.6331 166.287 32.6331C165.995 32.6331 165.756 32.6861 165.544 32.8187C165.332 32.9512 165.146 33.1368 165.013 33.3489C164.881 33.5875 164.774 33.8526 164.695 34.1442C164.615 34.4358 164.589 34.7804 164.589 35.0985C164.589 35.4961 164.615 35.8673 164.668 36.1854C164.721 36.5035 164.827 36.7686 164.96 37.0072C165.093 37.2458 165.279 37.4048 165.491 37.5374C165.703 37.6699 165.995 37.723 166.314 37.723C166.632 37.723 166.924 37.6434 167.136 37.5109C167.349 37.3783 167.534 37.1928 167.667 36.9542C167.8 36.7156 167.879 36.4505 167.959 36.1589C167.986 35.8673 168.012 35.5492 168.012 35.2045ZM169.843 35.178C169.843 35.8408 169.764 36.3975 169.631 36.9277C169.498 37.4313 169.286 37.8555 168.967 38.2266C168.676 38.5713 168.304 38.8629 167.853 39.0484C167.402 39.234 166.871 39.34 166.261 39.34C165.093 39.34 164.217 38.9954 163.633 38.2797C163.049 37.5639 162.784 36.5565 162.784 35.2576C162.784 34.6213 162.864 34.0381 163.023 33.5344C163.182 33.0308 163.421 32.5801 163.713 32.2355C164.005 31.8908 164.376 31.6258 164.827 31.4137C165.252 31.2281 165.756 31.1221 166.287 31.1221C166.871 31.1221 167.402 31.2281 167.826 31.4137C168.277 31.5992 168.649 31.8643 168.941 32.2355C169.233 32.5801 169.445 33.0042 169.604 33.5079C169.764 33.9851 169.843 34.5418 169.843 35.178ZM162.386 32.4741C162.386 32.6331 162.306 32.7126 162.147 32.7126H160.077V38.9424C160.077 39.0484 160.051 39.1015 160.024 39.128C159.998 39.1545 159.918 39.181 159.812 39.181H158.591C158.511 39.181 158.432 39.1545 158.379 39.128C158.326 39.1015 158.326 39.0219 158.326 38.9424V32.7126H156.309C156.176 32.7126 156.096 32.6331 156.096 32.4741V31.4667C156.096 31.3607 156.123 31.3076 156.15 31.2811C156.176 31.2546 156.229 31.2281 156.309 31.2281H162.147C162.227 31.2281 162.306 31.2546 162.333 31.2811C162.359 31.3076 162.386 31.3872 162.386 31.4667V32.4741ZM151.691 36.1324L152.116 34.6744L152.54 33.0573H152.62L153.045 34.6744L153.469 36.1324H151.691ZM153.867 37.5109L154.318 38.9954C154.345 39.0749 154.372 39.128 154.425 39.1545C154.478 39.181 154.557 39.181 154.637 39.181H155.99C156.07 39.181 156.123 39.1545 156.15 39.1015C156.176 39.0484 156.176 38.9954 156.15 38.9424L153.788 31.8113C153.735 31.6788 153.708 31.5727 153.655 31.4932C153.602 31.4137 153.549 31.3341 153.469 31.3076C153.39 31.2546 153.31 31.2281 153.23 31.2281C153.151 31.2281 153.018 31.2016 152.912 31.2016H152.222C152.116 31.2016 152.01 31.2016 151.93 31.2281C151.85 31.2546 151.771 31.2811 151.691 31.3341C151.638 31.3872 151.558 31.4402 151.532 31.5197C151.479 31.5992 151.452 31.7053 151.399 31.8378L149.037 38.9689C149.011 39.0219 149.011 39.0749 149.037 39.128C149.064 39.181 149.117 39.2075 149.197 39.2075H150.524C150.63 39.2075 150.709 39.181 150.736 39.1545C150.789 39.128 150.815 39.0749 150.842 38.9954L151.293 37.5639H153.867V37.5109ZM147.312 33.826C147.312 33.72 147.286 33.614 147.259 33.4814C147.233 33.3489 147.18 33.2428 147.074 33.1368C146.994 33.0308 146.861 32.9247 146.729 32.8717C146.569 32.7922 146.384 32.7657 146.171 32.7657H144.685V34.9129H146.171C146.569 34.9129 146.835 34.8069 147.02 34.5948C147.206 34.3827 147.312 34.1177 147.312 33.826ZM144.685 38.9424C144.685 39.0484 144.659 39.128 144.632 39.128C144.606 39.1545 144.526 39.181 144.42 39.181H143.226C143.146 39.181 143.066 39.1545 143.013 39.128C142.96 39.1015 142.96 39.0219 142.96 38.9424V31.9174C142.96 31.7053 143.013 31.5462 143.093 31.4137C143.172 31.2811 143.358 31.2281 143.65 31.2281H146.437C146.835 31.2281 147.206 31.2811 147.551 31.4137C147.87 31.5462 148.162 31.7053 148.4 31.9174C148.639 32.1294 148.799 32.3945 148.931 32.7126C149.064 33.0042 149.117 33.3489 149.117 33.72C149.117 33.9056 149.09 34.1707 149.037 34.4623C148.984 34.7539 148.852 35.0455 148.639 35.3106C148.427 35.5757 148.135 35.8143 147.764 36.0263C147.392 36.2119 146.861 36.3179 146.224 36.3179H144.712V38.9424H144.685ZM141.686 38.9159C141.686 38.9954 141.66 39.0749 141.633 39.1015C141.607 39.1545 141.554 39.1545 141.448 39.1545H138.077C137.653 39.1545 137.308 39.1015 137.042 38.9689C136.777 38.8364 136.565 38.6773 136.405 38.4917C136.246 38.3062 136.14 38.0676 136.087 37.829C136.034 37.5904 136.007 37.3253 136.007 37.0602V33.2959C136.007 33.0308 136.034 32.7657 136.113 32.5006C136.193 32.262 136.299 32.0234 136.485 31.8378C136.644 31.6523 136.856 31.4932 137.122 31.3607C137.387 31.2546 137.706 31.1751 138.104 31.1751H141.368C141.448 31.1751 141.527 31.2016 141.554 31.2281C141.58 31.2546 141.607 31.3341 141.607 31.4402V32.3945C141.607 32.5006 141.58 32.5536 141.554 32.6066C141.527 32.6331 141.474 32.6596 141.394 32.6596H138.502C138.21 32.6596 137.998 32.7392 137.918 32.8717C137.812 33.0042 137.759 33.1633 137.759 33.3754V34.2502H141.023C141.103 34.2502 141.182 34.2767 141.209 34.3032C141.235 34.3297 141.235 34.4093 141.235 34.5153V35.3901C141.235 35.4696 141.209 35.5492 141.209 35.6022C141.182 35.6552 141.129 35.6552 141.023 35.6552H137.732V36.9542C137.732 37.2193 137.785 37.4048 137.918 37.4844C138.051 37.5904 138.236 37.6169 138.475 37.6169H141.474C141.58 37.6169 141.633 37.6434 141.66 37.6699C141.686 37.6964 141.713 37.776 141.713 37.882V38.9159H141.686ZM134.282 38.9689C134.282 39.0484 134.256 39.1015 134.229 39.128C134.203 39.1545 134.123 39.181 134.017 39.181H132.77C132.61 39.181 132.531 39.1015 132.531 38.9689V32.7392H129.452V38.9689C129.452 39.0484 129.426 39.1015 129.399 39.128C129.373 39.1545 129.293 39.181 129.187 39.181H127.94C127.78 39.181 127.701 39.1015 127.701 38.9689V31.9969C127.701 31.7318 127.754 31.5462 127.86 31.4137C127.966 31.2811 128.152 31.2281 128.417 31.2281H133.513C133.778 31.2281 133.964 31.2811 134.07 31.4137C134.176 31.5462 134.229 31.7318 134.229 31.9969V38.9689H134.282ZM124.463 35.2045C124.463 34.8599 124.437 34.5418 124.384 34.2237C124.331 33.9056 124.251 33.6405 124.118 33.4019C123.986 33.1633 123.826 32.9777 123.587 32.8452C123.375 32.7126 123.083 32.6331 122.738 32.6331C122.446 32.6331 122.207 32.6861 121.969 32.8187C121.756 32.9512 121.571 33.1368 121.438 33.3489C121.305 33.5875 121.199 33.8526 121.119 34.1442C121.04 34.4358 121.013 34.7804 121.013 35.0985C121.013 35.4961 121.04 35.8673 121.093 36.1854C121.146 36.5035 121.252 36.7686 121.385 37.0072C121.517 37.2458 121.703 37.4048 121.916 37.5374C122.128 37.6699 122.42 37.723 122.738 37.723C123.057 37.723 123.349 37.6434 123.561 37.5109C123.773 37.3783 123.959 37.1928 124.092 36.9542C124.224 36.7156 124.304 36.4505 124.384 36.1589C124.437 35.8673 124.463 35.5492 124.463 35.2045ZM126.268 35.178C126.268 35.8408 126.188 36.3975 126.055 36.9277C125.923 37.4313 125.684 37.8555 125.392 38.2266C125.1 38.5713 124.729 38.8629 124.277 39.0484C123.826 39.234 123.296 39.34 122.685 39.34C121.517 39.34 120.642 38.9954 120.058 38.2797C119.474 37.5639 119.209 36.5565 119.209 35.2576C119.209 34.6213 119.288 34.0381 119.448 33.5344C119.607 33.0308 119.846 32.5801 120.138 32.2355C120.429 31.8908 120.801 31.6258 121.252 31.4137C121.677 31.2281 122.181 31.1221 122.712 31.1221C123.296 31.1221 123.826 31.2281 124.251 31.4137C124.702 31.5992 125.074 31.8643 125.365 32.2355C125.657 32.5801 125.87 33.0042 126.029 33.5079C126.188 33.9851 126.268 34.5418 126.268 35.178Z" fill="white"/>
  <path fill-rule="evenodd" clip-rule="evenodd" d="M217.983 33.8527L216.975 35.5493L215.064 38.6509C214.984 38.757 214.931 38.8365 214.878 38.916C214.825 38.969 214.772 39.0221 214.719 39.0751C214.666 39.1016 214.586 39.1281 214.507 39.1546C214.427 39.1546 214.321 39.1811 214.215 39.1811H213.764C213.472 39.1811 213.259 39.1016 213.18 38.969C213.074 38.8365 213.021 38.6244 213.021 38.3858V31.4138C213.021 31.2813 213.1 31.2017 213.259 31.2017H214.48C214.586 31.2017 214.666 31.2283 214.666 31.2548C214.692 31.2813 214.719 31.3343 214.719 31.4138V36.5302H214.799L215.754 34.9396L217.718 31.7054C217.797 31.5994 217.85 31.5199 217.904 31.4403C217.957 31.3608 218.01 31.3078 218.063 31.2813C218.116 31.2548 218.195 31.2282 218.275 31.2017C218.355 31.2017 218.434 31.1752 218.567 31.1752H219.045C219.337 31.1752 219.522 31.2283 219.628 31.3608C219.735 31.4668 219.788 31.6789 219.788 31.9705V38.969C219.788 39.1016 219.708 39.1811 219.549 39.1811H218.328C218.222 39.1811 218.142 39.1546 218.116 39.1281C218.089 39.1016 218.063 39.0486 218.063 38.969V33.8792H217.983V33.8527ZM208.536 31.0957C208.907 31.0957 209.252 31.1222 209.597 31.2017C209.942 31.2813 210.261 31.3873 210.526 31.5729C210.791 31.7319 211.004 31.944 211.163 32.2091C211.322 32.4742 211.402 32.7923 211.402 33.19C211.402 33.5611 211.296 33.8792 211.083 34.1973C210.871 34.5154 210.579 34.754 210.207 34.9131V34.9661C210.632 35.0986 210.977 35.3372 211.242 35.6553C211.481 36 211.614 36.3711 211.614 36.7688C211.614 37.1664 211.534 37.511 211.349 37.8291C211.189 38.1472 210.951 38.4123 210.659 38.6244C210.367 38.8365 210.022 38.9956 209.624 39.1281C209.226 39.2341 208.801 39.3137 208.35 39.3137C208.138 39.3137 207.899 39.3137 207.633 39.2872C207.368 39.2607 207.103 39.2341 206.837 39.1811C206.572 39.1281 206.306 39.0751 206.068 38.969C205.802 38.8895 205.59 38.7835 205.378 38.6509C205.298 38.5979 205.271 38.5714 205.271 38.5184C205.271 38.4654 205.271 38.3858 205.325 38.2798L205.723 37.4845C205.749 37.405 205.802 37.352 205.855 37.3255C205.908 37.2989 205.988 37.2989 206.094 37.352C206.227 37.405 206.386 37.458 206.545 37.511C206.704 37.564 206.89 37.6171 207.076 37.6436C207.262 37.6966 207.448 37.7231 207.633 37.7496C207.819 37.7761 208.005 37.8026 208.164 37.8026C208.721 37.8026 209.146 37.6966 209.411 37.4845C209.677 37.2724 209.809 36.9808 209.809 36.6362C209.809 36.3711 209.703 36.159 209.491 35.9735C209.279 35.7879 208.907 35.6819 208.403 35.6819H207.846C207.686 35.6819 207.58 35.6553 207.501 35.6023C207.421 35.5493 207.394 35.4433 207.394 35.2842V34.7805C207.394 34.6215 207.421 34.5154 207.474 34.4624C207.527 34.3829 207.633 34.3564 207.793 34.3564H208.429C208.828 34.3564 209.119 34.2503 209.305 34.0913C209.518 33.9322 209.597 33.7201 209.597 33.4285C209.597 33.1369 209.491 32.9514 209.252 32.8188C209.013 32.6863 208.721 32.6333 208.376 32.6333C208.058 32.6333 207.713 32.6598 207.394 32.7393C207.076 32.8188 206.758 32.8984 206.492 33.0044C206.359 33.0574 206.28 33.0574 206.227 33.0309C206.174 33.0044 206.147 32.9514 206.094 32.8453L205.802 32.1031C205.749 31.9705 205.723 31.891 205.723 31.838C205.723 31.785 205.776 31.7319 205.882 31.6789C206.227 31.4933 206.625 31.3343 207.103 31.2283C207.58 31.1487 208.058 31.0957 208.536 31.0957ZM199.884 33.6671C199.884 33.9322 199.964 34.1708 200.15 34.3299C200.309 34.4889 200.574 34.5685 200.919 34.5685H202.432V32.7393H200.893C200.707 32.7393 200.521 32.7658 200.415 32.8188C200.282 32.8718 200.176 32.9514 200.123 33.0309C200.043 33.1104 199.99 33.2165 199.964 33.3225C199.884 33.4551 199.884 33.5611 199.884 33.6671ZM202.405 35.9735H201.344C200.999 35.9735 200.733 36.053 200.548 36.1855C200.362 36.3181 200.203 36.5832 200.123 36.9543C200.097 37.0604 200.043 37.1929 200.017 37.3785C199.964 37.564 199.911 37.7496 199.858 37.9352C199.805 38.1207 199.752 38.3328 199.698 38.4919C199.645 38.6774 199.619 38.81 199.592 38.916C199.566 39.0221 199.486 39.1016 199.407 39.1016C199.3 39.1281 199.221 39.1281 199.141 39.1281H197.894C197.788 39.1281 197.735 39.0751 197.735 38.9956C197.735 38.969 197.735 38.916 197.761 38.863L198.345 36.6627C198.425 36.3711 198.531 36.1325 198.663 35.947C198.796 35.7614 199.035 35.6023 199.38 35.4963V35.5228C198.929 35.3637 198.61 35.1252 198.425 34.754C198.239 34.4094 198.133 34.0118 198.133 33.5611C198.133 33.2165 198.186 32.8984 198.318 32.6067C198.425 32.3151 198.61 32.0766 198.823 31.8645C199.035 31.6524 199.327 31.4933 199.645 31.3873C199.964 31.2813 200.335 31.2283 200.76 31.2283H203.546C203.812 31.2283 203.998 31.2813 204.104 31.4138C204.183 31.5199 204.236 31.7054 204.236 31.9175V38.9956C204.236 39.0751 204.21 39.1281 204.183 39.1546C204.157 39.1811 204.077 39.1811 203.998 39.1811H202.724C202.618 39.1811 202.538 39.1811 202.511 39.1546C202.485 39.1281 202.458 39.0751 202.458 38.9956V35.9735H202.405ZM192.188 34.2238H193.727C193.807 34.2238 193.913 34.2238 194.019 34.1973C194.125 34.1708 194.205 34.1443 194.285 34.0913C194.364 34.0383 194.444 33.9587 194.497 33.8527C194.55 33.7467 194.577 33.6141 194.577 33.4551C194.577 33.243 194.497 33.0574 194.364 32.9249C194.232 32.7923 194.019 32.7393 193.78 32.7393H192.188V34.2238ZM194.948 36.6362C194.948 36.3446 194.842 36.0795 194.683 35.8939C194.497 35.7084 194.232 35.6023 193.86 35.6023H192.215V37.6436H193.86C194.072 37.6436 194.258 37.6171 194.391 37.5375C194.524 37.4845 194.656 37.3785 194.736 37.2989C194.815 37.1929 194.869 37.0869 194.922 36.9808C194.922 36.8748 194.948 36.7422 194.948 36.6362ZM195.505 34.8336C195.718 34.9131 195.904 35.0191 196.063 35.1782C196.222 35.3107 196.355 35.4698 196.434 35.6553C196.54 35.8144 196.593 36 196.647 36.2121C196.7 36.3976 196.726 36.6097 196.726 36.7953C196.726 37.1664 196.647 37.4845 196.514 37.7761C196.381 38.0677 196.169 38.3328 195.93 38.5449C195.691 38.757 195.399 38.916 195.054 39.0486C194.736 39.1546 194.364 39.2341 193.993 39.2341H191.127C190.861 39.2341 190.676 39.1811 190.569 39.0751C190.49 38.969 190.437 38.7835 190.437 38.5449V31.9705C190.437 31.7319 190.49 31.5464 190.569 31.4403C190.649 31.3343 190.835 31.2813 191.127 31.2813H193.913C194.258 31.2813 194.577 31.3078 194.869 31.3873C195.16 31.4668 195.426 31.5729 195.638 31.7584C195.85 31.9175 196.036 32.1296 196.142 32.3947C196.275 32.6598 196.328 32.9514 196.328 33.296C196.328 33.6141 196.249 33.9057 196.089 34.1973C195.93 34.4624 195.718 34.6745 195.452 34.8336H195.505ZM186.721 37.7231C187.093 37.7231 187.411 37.6701 187.677 37.5905C187.969 37.511 188.207 37.405 188.473 37.3255C188.579 37.2724 188.659 37.2724 188.712 37.2989C188.765 37.3255 188.791 37.3785 188.844 37.458L189.242 38.2798C189.296 38.3858 189.322 38.4654 189.296 38.5184C189.269 38.5714 189.242 38.6244 189.163 38.6509C188.765 38.8895 188.314 39.0751 187.863 39.1546C187.411 39.2341 186.96 39.2872 186.536 39.2872C185.925 39.2872 185.368 39.1811 184.917 38.9956C184.466 38.81 184.094 38.5449 183.802 38.2003C183.51 37.8556 183.298 37.4315 183.165 36.9278C183.033 36.4241 182.953 35.8674 182.953 35.2312C182.953 34.6215 183.033 34.0383 183.218 33.5346C183.404 33.0309 183.643 32.5802 183.961 32.2356C184.28 31.8645 184.678 31.5994 185.129 31.3873C185.58 31.2017 186.084 31.0957 186.615 31.0957C187.013 31.0957 187.385 31.1222 187.756 31.2017C188.128 31.2548 188.499 31.3873 188.844 31.5994C188.924 31.6524 188.977 31.6789 189.004 31.7319C189.03 31.785 189.004 31.8645 188.951 31.997L188.606 32.7923C188.579 32.8984 188.526 32.9514 188.499 32.9779C188.446 33.0044 188.393 33.0044 188.287 32.9514C188.022 32.8453 187.756 32.7658 187.517 32.7393C187.279 32.6863 187.013 32.6598 186.721 32.6598C186.403 32.6598 186.138 32.7393 185.899 32.8453C185.66 32.9779 185.448 33.1634 185.288 33.402C185.129 33.6406 184.996 33.9057 184.917 34.2238C184.837 34.5419 184.784 34.8866 184.784 35.2577C184.784 35.6288 184.811 35.9735 184.89 36.2651C184.943 36.5567 185.076 36.8218 185.209 37.0604C185.368 37.2724 185.554 37.458 185.819 37.564C186.031 37.6701 186.35 37.7231 186.721 37.7231Z" fill="white"/>
</svg>
